<svg width="414" height="191" viewBox="0 0 414 191" fill="none" xmlns="http://www.w3.org/2000/svg">
<path d="M208.723 176.604L200.056 169.621L174.327 167.626C175.228 176.112 175.865 185.495 175.245 191.121H211.017C209.637 186.616 208.402 182.489 208.718 176.604H208.723Z" fill="#EFD9B1"/>
<path d="M199.278 186.968L205.761 191.121H199.071L199.278 186.968Z" fill="#DDC090"/>
<path d="M200.53 191.121C199.823 187.627 199.445 183.118 199.414 178.596C199.396 175.546 199.555 172.526 199.867 169.608L174.327 167.63C175.228 176.117 175.865 185.5 175.245 191.125H200.53V191.121Z" fill="#DDC090"/>
<path d="M175.681 187.812L173.597 186.651L177.698 186.265L175.681 187.812Z" fill="#DDC090"/>
<path d="M175.408 175.014L173.29 174.055L177.456 173.163L175.408 175.014Z" fill="#DDC090"/>
<path d="M176.314 180.705L174.182 179.65L178.379 178.982L176.314 180.705Z" fill="#DDC090"/>
<path d="M174.749 169.076L172.793 167.41L178.687 168.122L174.749 169.076Z" fill="#DDC090"/>
<path d="M199.348 180.019L197.502 177.554L203.55 179.329L199.348 180.019Z" fill="#DDC090"/>
<path d="M208.046 177.914L205.791 174.842L210.52 177.818L208.046 177.914Z" fill="#EFD9B1"/>
<path d="M190.874 185.759L186.013 185.091L196.526 183.94L190.874 185.759Z" fill="#CCA66E"/>
<path d="M179.008 174.478L174.982 173.779L184.73 173.265L179.008 174.478Z" fill="#CCA66E"/>
<path d="M183.728 176.209L179.008 177.804L187.508 177.145L183.728 176.209Z" fill="#CCA66E"/>
<path d="M199.792 171.384L195.656 171.555L202.02 174.28L199.792 171.384Z" fill="#EFD9B1"/>
<path d="M209.158 184.199L203.915 182.604L208.938 182.977L209.158 184.199Z" fill="#DDC090"/>
<path d="M199.555 184.542L205.405 186.51L198.034 185.873L199.555 184.542Z" fill="#DDC090"/>
<path d="M112.875 191.257C115.609 181.237 115.802 175.308 116.365 165.077L167.633 152.644C167.11 167.477 167.756 178.481 171.343 191.257H112.875Z" fill="#CCAA79"/>
<path d="M147.341 157.566C146.207 170.724 144.99 179.567 139.281 191.257H171.347C167.761 178.481 167.115 167.477 167.638 152.644L147.341 157.566Z" fill="#DDC090"/>
<path d="M136.305 188.888L163.265 191.213H134.947L136.305 188.888Z" fill="#CCAA79"/>
<path d="M150.15 159.83L141.043 162.581L149.271 162.128L150.15 159.83Z" fill="#DDC090"/>
<path d="M120.593 166.193L113.415 165.516L134.459 160.669L120.593 166.193Z" fill="#CCAA79"/>
<path d="M120.79 185.038L111.367 186.317L119.56 187.174L120.79 185.038Z" fill="#CCAA79"/>
<path d="M141.962 172.742L151.073 169.982L142.836 170.443L141.962 172.742Z" fill="#CCAA79"/>
<path d="M139.465 185.061L148.932 186.072L141.166 183.285L139.465 185.061Z" fill="#CCAA79"/>
<path d="M167.493 158.972L158.157 160.084L167.497 159.957L167.493 158.972Z" fill="#CCAA79"/>
<path d="M165.686 155.14L170.828 151.747L161.731 154.164L165.686 155.14Z" fill="#DDC090"/>
<path d="M117.683 178.996L123.695 179.672L133.686 177.251L117.683 178.996Z" fill="#B78C62"/>
<path d="M121.274 165.71L134.947 163.675L138.533 161.346L121.274 165.71Z" fill="#B78C62"/>
<path d="M158.509 183.166L147.552 181.712L164.623 181.905L158.509 183.166Z" fill="#CCAA79"/>
<path d="M164.623 165.226L171.215 165.419L166.561 166.777L164.623 165.226Z" fill="#DDC090"/>
<path d="M163.651 172.306L170.244 172.5L165.589 173.853L163.651 172.306Z" fill="#DDC090"/>
<path d="M372.238 34.9225C380.47 34.404 392.306 31.3451 396.758 25.9658C399.87 22.1994 400.599 19.246 397.87 14.2271C397.87 14.2271 397.158 27.4381 372.238 34.9225Z" fill="#E0D2B8"/>
<path d="M365.421 28.616C366.502 33.6613 369.895 34.6326 371.188 34.8479C373.684 35.2742 385.331 34.6589 393.853 28.5676C380.285 34.1359 365.421 28.616 365.421 28.616Z" fill="#F2EADA"/>
<path d="M28 24.304C30.6151 29.0548 34.3245 29.0021 35.6914 28.8307C38.3373 28.5011 43.6685 24.3171 49.8172 18.1555C39.2954 27.1387 28 24.304 28 24.304Z" fill="#E0D2B8"/>
<path d="M201.073 80.553C195.85 82.0306 195.068 85.6519 194.929 87.0204C194.656 89.6689 197.542 95.7961 202.174 103.163C195.77 90.9072 201.073 80.553 201.073 80.553Z" fill="#E0D2B8"/>
<path d="M36.7726 28.5887C44.9035 25.5738 55.8956 18.9156 58.748 12.1518C60.7434 7.41856 60.5852 4.22348 56.3175 0C56.3175 0 56.2297 14.8899 36.7726 28.5887Z" fill="#F2EADA"/>
<path d="M194.922 88.1267C196.038 96.7155 200.067 108.907 206.027 113.201C210.198 116.206 213.351 116.769 218.431 113.565C218.431 113.565 203.92 110.136 194.922 88.1267Z" fill="#F2EADA"/>
<path d="M0 140.444C1.88549 144.847 5.44112 145.748 6.77284 145.955C9.34396 146.363 14.9917 144.412 21.6722 141.112C10.4383 145.533 0.00439509 140.444 0.00439509 140.444H0Z" fill="#E0D2B8"/>
<path d="M7.83643 146.039C16.0069 145.718 27.3858 143.248 30.9898 138.638C33.5126 135.412 33.7763 132.854 30.2382 128.446C30.2382 128.446 28.2209 140.163 7.83203 146.039H7.83643Z" fill="#F2EADA"/>
<path d="M378.967 126.995C376.097 131.597 377.951 134.809 378.769 135.917C380.347 138.062 386.605 140.677 394.982 143.032C382.008 138.233 378.971 126.991 378.971 126.991L378.967 126.995Z" fill="#E0D2B8"/>
<path d="M379.507 136.743C386.109 142.369 397.281 148.71 404.581 147.897C409.688 147.326 412.396 145.63 414 139.846C414 139.846 400.96 147.036 379.507 136.743Z" fill="#F2EADA"/>
<path d="M315.779 53.8029C321.51 55.6312 330.647 64.1441 339.626 65.6823C339.626 65.6823 346.439 60.426 352.122 60.6985C352.122 60.6985 335.499 53.8952 332.585 51.1528C328.124 50.2255 324.828 53.1481 315.779 53.7985V53.8029Z" fill="#E0D2B8"/>
<path d="M148.853 39.2033C147.526 40.8734 145.803 42.7456 143.812 44.6222C140.48 47.7601 137.201 50.1598 134.938 51.2409C134.103 53.3812 133.013 55.9214 131.079 58.9935C135.944 55.4556 148.216 53.1351 154.773 46.8065C154.773 46.8065 154.571 38.2057 158.157 33.7888C158.157 33.7888 153.622 36.562 148.848 39.2077L148.853 39.2033Z" fill="#D3C1A3"/>
<path d="M342.25 56.4093C340.119 56.3302 337.587 56.0489 334.897 55.5567C330.397 54.7304 326.52 53.5086 324.309 52.3264C322.09 52.9241 319.4 53.5438 315.779 53.8075C321.51 55.6358 330.647 64.1487 339.626 65.6869C339.626 65.6869 346.439 60.4306 352.122 60.7031C352.122 60.7031 347.199 58.6902 342.246 56.4093H342.25Z" fill="#D3C1A3"/>
<path d="M136.081 128.613C142.045 129.373 152.571 136.097 161.682 135.992C161.682 135.992 167.431 129.593 173.074 128.837C173.074 128.837 155.498 125.145 152.136 122.974C147.578 122.869 144.867 126.336 136.081 128.613Z" fill="#E0D2B8"/>
<path d="M222.591 41.1831C227.618 44.4757 234.13 55.1252 242.367 59.0163C242.367 59.0163 250.342 55.7791 255.747 57.5685C255.747 57.5685 241.567 46.5608 239.497 43.1383C235.446 41.0495 231.487 42.9803 222.591 41.1831Z" fill="#E0D2B8"/>
<path d="M162.583 126.398C160.469 126.705 157.933 126.885 155.199 126.885C150.624 126.885 146.589 126.384 144.203 125.62C142.128 126.608 139.592 127.707 136.081 128.617C142.045 129.377 152.571 136.101 161.682 135.996C161.682 135.996 167.431 129.597 173.074 128.841C173.074 128.841 167.871 127.747 162.583 126.402V126.398Z" fill="#D3C1A3"/>
<path d="M247.386 50.7862C245.351 50.1379 242.992 49.1904 240.535 47.9945C236.422 45.9929 233.015 43.7774 231.205 42.0459C228.907 42.0273 226.145 41.9055 222.589 41.187C227.617 44.4797 234.129 55.1292 242.365 59.0202C242.365 59.0202 250.34 55.7831 255.745 57.5724C255.745 57.5724 251.547 54.3121 247.384 50.7902L247.386 50.7862Z" fill="#D3C1A3"/>
<path d="M40.4437 165.227L45.063 162.471L47.2737 166.356L40.4437 165.227Z" fill="#DBC193"/>
<path d="M297.315 80.2688C297.315 80.2688 314.57 82.8398 325.333 80.594C325.333 80.594 331.012 85.6481 337.292 86.7688C337.292 86.7688 318.156 88.1752 307.393 85.3669C296.629 82.5585 297.315 80.2688 297.315 80.2688Z" fill="#E8D3AA"/>
<path d="M123.322 101.263C123.322 101.263 93.9802 102.533 81.3883 96.1167C81.3883 96.1167 72.3564 102.511 64.0804 102.586C64.0804 102.586 87.4755 109.376 101.975 108.422C112.242 107.75 123.317 101.263 123.317 101.263H123.322Z" fill="#E8D3AA"/>
<path d="M58.0679 190.919H142.3C130.279 164.269 123.788 140.36 124.807 112.875L104.625 102.771L63.3596 111.754C66.4801 131.074 63.3068 160.006 58.0635 190.919H58.0679Z" fill="#E8D3AA"/>
<path d="M142.3 190.919C133.264 163.891 126.135 139.442 124.807 112.875L104.625 102.771C108.009 130.951 107.5 156.85 106.867 190.919H142.3Z" fill="#F4E3BD"/>
<path d="M293.333 190.919H343.569C338.251 158.256 335.095 128.055 339.982 105.579L323.835 99.4043L290.942 110.633C298.4 130.771 298.084 159.566 293.333 190.923V190.919Z" fill="#FCF2CA"/>
<path d="M293.333 190.919H330.111C324.6 155.18 323.154 129.703 323.83 99.3999L290.938 110.629C294.423 129.993 294.84 159.891 293.328 190.919H293.333Z" fill="#F4E3BD"/>
<path d="M115.986 190.919H38.2461C44.219 175.216 45.8057 164.655 44.8255 146.003L83.098 139.266L112.998 148.812C109.855 165.055 111.288 175.212 115.986 190.923V190.919Z" fill="#FFFAD4"/>
<path d="M49.4579 147.686C49.4579 147.686 47.6647 142.914 47.067 139.969C47.067 139.969 59.0261 143.199 75.4725 141.652L49.4579 147.686Z" fill="#DBC193"/>
<path d="M78.1623 190.919H38.2461C43.7927 173.937 44.408 163.745 44.8255 146.003L83.098 139.266C83.0013 159.267 80.8697 176.051 78.1667 190.919H78.1623Z" fill="#F4E3BD"/>
<path d="M378.255 190.919H300.51C305.964 177.981 307.182 170.474 302.303 157.79C315.779 155.4 322.758 150.781 332.801 143.195L375.262 148.807C372.989 161.473 373.785 175.159 378.25 190.919H378.255Z" fill="#FFFAD4"/>
<path d="M339.385 190.919H300.51C303.969 177.611 305.16 169.81 302.303 157.79C315.401 154.319 322.296 150.702 332.801 143.195C330.678 157.786 333.605 174.284 339.38 190.919H339.385Z" fill="#E8D3AA"/>
<path d="M239.207 135.776L226.202 153.725C226.202 153.725 238.574 161.482 252.318 174.016L266.729 154.67C266.729 154.67 257.583 147.172 239.212 135.776H239.207Z" fill="#FCF2CA"/>
<path d="M249.057 154.507C251.711 160.647 253.368 166.628 254.014 171.744L266.729 154.674C266.729 154.674 257.583 147.176 239.212 135.781L238.262 137.095C242.134 141.344 245.998 147.414 249.061 154.507H249.057Z" fill="#FFFAD4"/>
<path d="M254.573 150.499L251.505 154.613L251.808 154.911L254.885 150.701L254.573 150.499Z" fill="#E8D3AF"/>
<path d="M249.786 146.988L247.808 149.616L248.226 149.857L250.226 147.256L249.786 146.988Z" fill="#E8D3AF"/>
<path d="M247.461 150.042L246.925 150.82L247.338 151.057L247.901 150.314L247.461 150.042Z" fill="#E8D3AF"/>
<path d="M254.581 152.982L252.542 155.636L252.88 155.975L254.893 153.29L254.581 152.982Z" fill="#E8D3AF"/>
<path d="M250.089 159.697L252.555 156.406L252.217 156.063L249.711 159.324L250.089 159.697Z" fill="#E8D3AF"/>
<path d="M249.769 160.128L249.386 159.75L248.327 161.13L248.586 161.701L249.769 160.128Z" fill="#E8D3AF"/>
<path d="M255.21 152.859L256.207 151.532L255.825 151.356L254.906 152.556L255.21 152.859Z" fill="#E8D3AF"/>
<path d="M247.51 158.405L250.305 154.639L249.971 154.305L247.198 158.093L247.51 158.405Z" fill="#E8D3AF"/>
<path d="M251.892 151.756L250.344 153.813L250.687 154.151L252.265 152.13L251.892 151.756Z" fill="#E8D3AF"/>
<path d="M252.212 151.33L252.595 151.703L253.698 150.033L253.395 149.756L252.212 151.33Z" fill="#E8D3AF"/>
<path d="M241.814 158.375L243.51 156.147L243.172 155.812L241.502 158.067L241.814 158.375Z" fill="#E8D3AF"/>
<path d="M245.092 153.263L243.545 155.316L243.888 155.659L245.47 153.637L245.092 153.263Z" fill="#E8D3AF"/>
<path d="M245.418 152.837L245.796 153.211L246.899 151.541L246.595 151.259L245.418 152.837Z" fill="#E8D3AF"/>
<path d="M237.392 156.384L239.093 154.151L238.755 153.817L237.084 156.071L237.392 156.384Z" fill="#E8D3AF"/>
<path d="M240.68 151.272L239.128 153.325L239.471 153.663L241.049 151.642L240.68 151.272Z" fill="#E8D3AF"/>
<path d="M240.996 150.842L241.374 151.215L242.482 149.55L242.178 149.269L240.996 150.842Z" fill="#E8D3AF"/>
<path d="M255.091 154.964L252.648 158.146L253.039 158.537L255.447 155.32L255.091 154.964Z" fill="#E8D3AF"/>
<path d="M250.784 161.543L252.718 158.968L252.322 158.572L250.362 161.121L250.784 161.543Z" fill="#E8D3AF"/>
<path d="M255.421 154.547L255.773 154.894L257.68 152.345L257.254 152.151L255.39 154.573L255.421 154.547Z" fill="#E8D3AF"/>
<path d="M250.463 161.974L250.037 161.548L248.833 163.121L249.123 163.763L250.463 161.974Z" fill="#E8D3AF"/>
<path d="M245.87 144.337L242.802 148.451L243.106 148.75L246.182 144.54L245.87 144.337Z" fill="#E8D3AF"/>
<path d="M245.879 146.821L243.84 149.475L244.178 149.813L246.191 147.128L245.879 146.821Z" fill="#E8D3AF"/>
<path d="M241.387 153.536L243.857 150.244L243.514 149.901L241.014 153.162L241.387 153.536Z" fill="#E8D3AF"/>
<path d="M241.062 153.967L240.688 153.589L239.629 154.969L239.884 155.54L241.062 153.967Z" fill="#E8D3AF"/>
<path d="M246.512 146.698L247.505 145.37L247.127 145.195L246.204 146.394L246.512 146.698Z" fill="#E8D3AF"/>
<path d="M238.807 152.243L241.607 148.477L241.269 148.143L238.5 151.931L238.807 152.243Z" fill="#E8D3AF"/>
<path d="M243.189 145.594L241.642 147.651L241.985 147.989L243.563 145.968L243.189 145.594Z" fill="#E8D3AF"/>
<path d="M243.515 145.168L243.892 145.546L244.996 143.876L244.692 143.59L243.515 145.168Z" fill="#E8D3AF"/>
<path d="M246.389 148.807L243.945 151.989L244.341 152.376L246.749 149.163L246.389 148.807Z" fill="#E8D3AF"/>
<path d="M242.086 155.382L244.015 152.806L243.62 152.411L241.664 154.964L242.086 155.382Z" fill="#E8D3AF"/>
<path d="M246.718 148.385L247.07 148.732L248.977 146.188L248.551 145.99L246.692 148.411L246.718 148.385Z" fill="#E8D3AF"/>
<path d="M241.765 155.812L241.334 155.39L240.13 156.959L240.42 157.601L241.765 155.812Z" fill="#E8D3AF"/>
<path d="M249.514 149.686L247.474 152.345L247.813 152.679L249.821 149.998L249.514 149.686Z" fill="#E8D3AF"/>
<path d="M246.358 154.578L247.487 153.11L247.149 152.771L245.984 154.204L246.358 154.578Z" fill="#E8D3AF"/>
<path d="M245.774 155.36L245.396 154.982L243.26 157.834L243.519 158.406L245.774 155.36Z" fill="#E8D3AF"/>
<path d="M250.142 149.567L251.14 148.24L250.758 148.064L249.839 149.264L250.142 149.567Z" fill="#E8D3AF"/>
<path d="M250.27 151.18L247.953 154.204L248.323 154.577L250.613 151.523L250.27 151.18Z" fill="#E8D3AF"/>
<path d="M246.182 157.43L248.019 154.982L247.641 154.613L245.782 157.03L246.182 157.43Z" fill="#E8D3AF"/>
<path d="M250.586 150.785L250.916 151.114L252.727 148.697L252.327 148.512L250.555 150.811L250.586 150.785Z" fill="#E8D3AF"/>
<path d="M245.879 157.834L245.475 157.434L244.328 158.928L244.604 159.539L245.879 157.834Z" fill="#E8D3AF"/>
<path d="M288.849 43.1674L307.673 30.3651C307.673 30.3651 300.236 18.266 293.631 0.998535L273 14.6578C273 14.6578 277.755 25.3242 288.849 43.1674Z" fill="#FCF2CA"/>
<path d="M288.225 21.2632C288.519 14.2885 289.605 7.84124 291.204 2.60254L273 14.6533C273 14.6533 277.755 25.3197 288.849 43.1629L290.224 42.2268C288.664 36.6541 287.886 29.3146 288.22 21.2588L288.225 21.2632Z" fill="#FFFAD4"/>
<path d="M281.759 23.1709L286.15 20.2659L286.009 19.866L281.57 22.8589L281.759 23.1709Z" fill="#E8D3AF"/>
<path d="M284.419 28.3522L287.24 26.502L286.981 26.1108L284.155 27.9259L284.419 28.3522Z" fill="#E8D3AF"/>
<path d="M287.719 26.2076L288.51 25.6494L288.255 25.2627L287.451 25.7857L287.719 26.2076Z" fill="#E8D3AF"/>
<path d="M282.797 20.7404L285.684 18.8902L285.53 18.4375L282.66 20.3229L282.797 20.7404Z" fill="#E8D3AF"/>
<path d="M289.517 15.814L285.992 18.1345L286.146 18.5871L289.684 16.315L289.517 15.814Z" fill="#E8D3AF"/>
<path d="M289.978 15.5106L290.145 16.016L291.644 15.0535L291.662 14.4031L289.978 15.5106Z" fill="#E8D3AF"/>
<path d="M282.199 20.6306L280.779 21.5623L281.034 21.8744L282.335 21.0393L282.199 20.6306Z" fill="#E8D3AF"/>
<path d="M291.204 18.02L287.196 20.6789L287.346 21.1316L291.345 18.4331L291.204 18.02Z" fill="#E8D3AF"/>
<path d="M284.607 22.9159L286.814 21.4744L286.66 21.0173L284.44 22.4149L284.607 22.9159Z" fill="#E8D3AF"/>
<path d="M284.15 23.2193L283.979 22.7139L282.318 23.9444L282.463 24.3268L284.15 23.2193Z" fill="#E8D3AF"/>
<path d="M296.123 20.125L293.714 21.6852L293.868 22.1379L296.259 20.5425L296.123 20.125Z" fill="#E8D3AF"/>
<path d="M291.125 23.9267L293.332 22.4807L293.182 22.0237L290.958 23.4213L291.125 23.9267Z" fill="#E8D3AF"/>
<path d="M290.668 24.23L290.501 23.7202L288.836 24.9508L288.985 25.3375L290.668 24.23Z" fill="#E8D3AF"/>
<path d="M299.102 23.6851L296.694 25.2452L296.848 25.6979L299.243 24.1026L299.102 23.6851Z" fill="#E8D3AF"/>
<path d="M294.11 27.4867L296.316 26.0452L296.162 25.5837L293.943 26.9857L294.11 27.4867Z" fill="#E8D3AF"/>
<path d="M293.648 27.7896L293.481 27.2842L291.82 28.5104L291.965 28.8971L293.648 27.7896Z" fill="#E8D3AF"/>
<path d="M283.192 18.6133L286.647 16.3938L286.475 15.8708L283.034 18.1342L283.192 18.6133Z" fill="#E8D3AF"/>
<path d="M289.693 13.7524L286.932 15.5675L287.113 16.0949L289.881 14.315L289.693 13.7524Z" fill="#E8D3AF"/>
<path d="M282.731 18.9034L282.572 18.4375L279.848 20.2306L280.133 20.5778L282.766 18.8902L282.731 18.9034Z" fill="#E8D3AF"/>
<path d="M290.154 13.4491L290.343 14.0204L292.048 12.9217L292.07 12.1877L290.154 13.4491Z" fill="#E8D3AF"/>
<path d="M286.691 32.3692L291.081 29.4641L290.941 29.0642L286.506 32.0571L286.691 32.3692Z" fill="#E8D3AF"/>
<path d="M287.728 29.9387L290.615 28.084L290.466 27.6357L287.592 29.5255L287.728 29.9387Z" fill="#E8D3AF"/>
<path d="M294.448 25.0122L290.923 27.3327L291.077 27.7898L294.619 25.5132L294.448 25.0122Z" fill="#E8D3AF"/>
<path d="M294.914 24.7088L295.076 25.2142L296.575 24.2518L296.597 23.6013L294.914 24.7088Z" fill="#E8D3AF"/>
<path d="M287.13 29.8289L285.711 30.7606L285.965 31.0726L287.266 30.2376L287.13 29.8289Z" fill="#E8D3AF"/>
<path d="M296.14 27.2185L292.127 29.8774L292.277 30.3257L296.276 27.6316L296.14 27.2185Z" fill="#E8D3AF"/>
<path d="M289.543 32.1142L291.749 30.6726L291.595 30.2156L289.376 31.6131L289.543 32.1142Z" fill="#E8D3AF"/>
<path d="M289.082 32.4175L288.915 31.9121L287.253 33.1427L287.398 33.525L289.082 32.4175Z" fill="#E8D3AF"/>
<path d="M288.128 27.8117L291.582 25.5923L291.407 25.0693L287.965 27.3327L288.128 27.8117Z" fill="#E8D3AF"/>
<path d="M294.624 22.9509L291.868 24.766L292.044 25.2934L294.813 23.5135L294.624 22.9509Z" fill="#E8D3AF"/>
<path d="M287.662 28.1018L287.508 27.636L284.783 29.4291L285.069 29.7763L287.697 28.0843L287.662 28.1018Z" fill="#E8D3AF"/>
<path d="M295.085 22.6478L295.274 23.2191L296.979 22.1204L297.001 21.3909L295.085 22.6478Z" fill="#E8D3AF"/>
<path d="M285.798 25.8122L288.677 23.9576L288.528 23.5049L285.658 25.3947L285.798 25.8122Z" fill="#E8D3AF"/>
<path d="M290.585 22.1775L288.989 23.2015L289.143 23.6586L290.752 22.6785L290.585 22.1775Z" fill="#E8D3AF"/>
<path d="M291.42 21.6283L291.591 22.1338L294.641 20.1253L294.659 19.4705L291.42 21.6283Z" fill="#E8D3AF"/>
<path d="M285.196 25.698L283.777 26.6341L284.032 26.9418L285.333 26.1067L285.196 25.698Z" fill="#E8D3AF"/>
<path d="M285.768 24.0717L289.051 21.9622L288.884 21.4656L285.618 23.6147L285.768 24.0717Z" fill="#E8D3AF"/>
<path d="M291.943 19.4526L289.323 21.1798L289.491 21.6808L292.119 19.9888L291.943 19.4526Z" fill="#E8D3AF"/>
<path d="M285.328 24.3443L285.183 23.9004L282.594 25.6056L282.867 25.9352L285.363 24.3311L285.328 24.3443Z" fill="#E8D3AF"/>
<path d="M292.378 19.1671L292.554 19.7077L294.18 18.6661L294.198 17.9717L292.378 19.1671Z" fill="#E8D3AF"/>
<path d="M356.903 92.645L376.822 103.667C376.822 103.667 384.263 91.5726 396.696 77.887L375.2 65.6384C375.2 65.6384 367.825 74.6919 356.903 92.645Z" fill="#FCF2CA"/>
<path d="M376.171 82.2069C382.527 79.3238 388.772 77.3813 394.169 76.4496L375.2 65.6426C375.2 65.6426 367.825 74.696 356.903 92.6491L358.362 93.4534C362.63 89.5507 368.832 85.5426 376.171 82.2069Z" fill="#FFFAD4"/>
<path d="M371.557 77.2979L376.127 79.904L376.422 79.6008L371.746 76.9902L371.557 77.2979Z" fill="#E8D3AF"/>
<path d="M368.133 82.0093L371.056 83.6926L371.284 83.2838L368.388 81.583L368.133 82.0093Z" fill="#E8D3AF"/>
<path d="M371.535 83.9871L372.392 84.4442L372.62 84.0354L371.79 83.5564L371.535 83.9871Z" fill="#E8D3AF"/>
<path d="M374.194 77.1311L377.147 78.8671L377.481 78.5287L374.501 76.8191L374.194 77.1311Z" fill="#E8D3AF"/>
<path d="M381.621 80.9018L377.96 78.8054L377.622 79.1438L381.252 81.2797L381.621 80.9018Z" fill="#E8D3AF"/>
<path d="M382.101 81.1787L381.723 81.5567L383.261 82.4576L383.85 82.1807L382.101 81.1787Z" fill="#E8D3AF"/>
<path d="M374.022 76.5465L372.546 75.6982L372.383 76.0674L373.719 76.8497L374.022 76.5465Z" fill="#E8D3AF"/>
<path d="M380.413 83.4028L376.233 81.0251L375.894 81.3635L380.105 83.7148L380.413 83.4028Z" fill="#E8D3AF"/>
<path d="M373.068 79.7283L375.35 81.0424L375.688 80.6996L373.438 79.3503L373.068 79.7283Z" fill="#E8D3AF"/>
<path d="M372.589 79.4515L372.963 79.0736L371.117 78.1462L370.84 78.4495L372.589 79.4515Z" fill="#E8D3AF"/>
<path d="M380.751 88.7425L378.272 87.301L377.938 87.635L380.443 89.0546L380.751 88.7425Z" fill="#E8D3AF"/>
<path d="M375.108 86L377.389 87.3185L377.732 86.9757L375.481 85.6221L375.108 86Z" fill="#E8D3AF"/>
<path d="M374.633 85.7274L375.007 85.3451L373.161 84.4177L372.88 84.721L374.633 85.7274Z" fill="#E8D3AF"/>
<path d="M378.918 93.0094L376.439 91.5635L376.105 91.9019L378.611 93.3214L378.918 93.0094Z" fill="#E8D3AF"/>
<path d="M373.275 90.2671L375.56 91.5856L375.899 91.2428L373.649 89.8936L373.275 90.2671Z" fill="#E8D3AF"/>
<path d="M372.796 89.995L373.174 89.6126L371.328 88.6897L371.051 88.9885L372.796 89.995Z" fill="#E8D3AF"/>
<path d="M376.268 76.5244L379.806 78.6032L380.197 78.2121L376.624 76.1641L376.268 76.5244Z" fill="#E8D3AF"/>
<path d="M383.542 80.1283L380.676 78.4846L380.281 78.8846L383.12 80.5502L383.542 80.1283Z" fill="#E8D3AF"/>
<path d="M375.802 76.2387L376.145 75.8915L373.319 74.2654L373.134 74.6785L375.833 76.265L375.802 76.2387Z" fill="#E8D3AF"/>
<path d="M384.017 80.4053L383.595 80.8316L385.344 81.86L386.008 81.5435L384.017 80.4053Z" fill="#E8D3AF"/>
<path d="M365.571 85.8462L370.141 88.4568L370.436 88.1535L365.764 85.543L365.571 85.8462Z" fill="#E8D3AF"/>
<path d="M368.208 85.679L371.165 87.4194L371.499 87.0809L368.515 85.3713L368.208 85.679Z" fill="#E8D3AF"/>
<path d="M375.635 89.454L371.979 87.3533L371.636 87.6961L375.266 89.832L375.635 89.454Z" fill="#E8D3AF"/>
<path d="M376.119 89.731L375.741 90.1089L377.275 91.0099L377.864 90.733L376.119 89.731Z" fill="#E8D3AF"/>
<path d="M368.036 85.0946L366.564 84.2507L366.397 84.6155L367.733 85.4022L368.036 85.0946Z" fill="#E8D3AF"/>
<path d="M374.431 91.955L370.247 89.5774L369.913 89.9158L374.123 92.2671L374.431 91.955Z" fill="#E8D3AF"/>
<path d="M367.082 88.2808L369.368 89.5949L369.706 89.2565L367.456 87.9028L367.082 88.2808Z" fill="#E8D3AF"/>
<path d="M366.603 88.0038L366.981 87.6258L365.135 86.6985L364.854 87.0017L366.603 88.0038Z" fill="#E8D3AF"/>
<path d="M370.286 85.0769L373.824 87.1557L374.211 86.7646L370.642 84.7166L370.286 85.0769Z" fill="#E8D3AF"/>
<path d="M377.552 88.6806L374.69 87.0369L374.299 87.4324L377.138 89.1025L377.552 88.6806Z" fill="#E8D3AF"/>
<path d="M369.816 84.7914L370.163 84.4442L367.333 82.8181L367.153 83.2312L369.847 84.8178L369.816 84.7914Z" fill="#E8D3AF"/>
<path d="M378.031 88.9531L377.609 89.3838L379.358 90.4078L380.022 90.0958L378.031 88.9531Z" fill="#E8D3AF"/>
<path d="M371.021 82.093L373.974 83.829L374.312 83.4906L371.328 81.781L371.021 82.093Z" fill="#E8D3AF"/>
<path d="M376.422 84.7298L374.787 83.7629L374.448 84.1057L376.053 85.1034L376.422 84.7298Z" fill="#E8D3AF"/>
<path d="M377.292 85.2222L376.914 85.6045L380.087 87.4196L380.676 87.1427L377.292 85.2222Z" fill="#E8D3AF"/>
<path d="M370.849 81.5084L369.377 80.6602L369.214 81.0293L370.546 81.8116L370.849 81.5084Z" fill="#E8D3AF"/>
<path d="M372.559 81.2842L375.925 83.2575L376.294 82.8883L372.901 80.9414L372.559 81.2842Z" fill="#E8D3AF"/>
<path d="M379.463 84.7079L376.747 83.1477L376.374 83.5257L379.068 85.1078L379.463 84.7079Z" fill="#E8D3AF"/>
<path d="M372.115 81.0116L372.444 80.682L369.759 79.1438L369.588 79.5349L372.145 81.038L372.115 81.0116Z" fill="#E8D3AF"/>
<path d="M379.916 84.967L379.516 85.3714L381.177 86.3514L381.806 86.0482L379.916 84.967Z" fill="#E8D3AF"/>
<path d="M77.4591 62.1138L97.1491 50.463C97.1491 50.463 89.0578 38.6363 81.7487 21.8787L60.16 34.2854C60.16 34.2854 65.3858 44.6573 77.4547 62.1094L77.4591 62.1138Z" fill="#FCF2CA"/>
<path d="M76.3955 41.1149C76.5801 34.4479 77.6085 28.3039 79.2084 23.342L60.16 34.2897C60.16 34.2897 65.3858 44.6616 77.4547 62.1137L78.8963 61.2611C77.1427 55.873 76.1845 48.8192 76.3911 41.1149H76.3955Z" fill="#FFFAD4"/>
<path d="M69.5874 42.7275L74.1847 40.0906L74.0265 39.6995L69.3853 42.4243L69.5874 42.7275Z" fill="#E8D3AF"/>
<path d="M72.5015 47.7775L75.455 46.0987L75.1693 45.7163L72.2114 47.36L72.5015 47.7775Z" fill="#E8D3AF"/>
<path d="M75.956 45.8304L76.7822 45.3206L76.501 44.9426L75.6659 45.4173L75.956 45.8304Z" fill="#E8D3AF"/>
<path d="M70.6468 40.4335L73.6618 38.7547L73.4948 38.3152L70.4929 40.0292L70.6468 40.4335Z" fill="#E8D3AF"/>
<path d="M77.67 35.9331L73.9781 38.0383L74.1452 38.4821L77.8546 36.4165L77.67 35.9331Z" fill="#E8D3AF"/>
<path d="M78.149 35.661L78.338 36.1488L79.9071 35.2786L79.9115 34.6545L78.149 35.661Z" fill="#E8D3AF"/>
<path d="M70.0093 40.3064L68.5238 41.1546L68.7963 41.4623L70.1588 40.7063L70.0093 40.3064Z" fill="#E8D3AF"/>
<path d="M79.4939 38.1042L75.301 40.517L75.468 40.9521L79.6478 38.5042L79.4939 38.1042Z" fill="#E8D3AF"/>
<path d="M72.6024 42.5783L74.9099 41.2686L74.7385 40.8247L72.4178 42.0904L72.6024 42.5783Z" fill="#E8D3AF"/>
<path d="M72.119 42.8553L71.93 42.363L70.1984 43.4881L70.3566 43.8573L72.119 42.8553Z" fill="#E8D3AF"/>
<path d="M84.7374 40.2798L82.219 41.6949L82.386 42.1344L84.8912 40.6797L84.7374 40.2798Z" fill="#E8D3AF"/>
<path d="M79.5204 43.7562L81.8278 42.4466L81.6608 42.0027L79.3358 43.2728L79.5204 43.7562Z" fill="#E8D3AF"/>
<path d="M79.0369 44.0332L78.8523 43.541L77.1162 44.6617L77.2744 45.0397L79.0369 44.0332Z" fill="#E8D3AF"/>
<path d="M87.9589 43.7869L85.4406 45.202L85.6076 45.6415L88.1128 44.1912L87.9589 43.7869Z" fill="#E8D3AF"/>
<path d="M82.742 47.2633L85.0494 45.9536L84.8824 45.5098L82.5574 46.7799L82.742 47.2633Z" fill="#E8D3AF"/>
<path d="M82.2629 47.5403L82.074 47.0481L80.3379 48.1732L80.4961 48.5468L82.2629 47.5403Z" fill="#E8D3AF"/>
<path d="M71.0247 38.4121L74.6418 36.3948L74.4485 35.8894L70.8489 37.9462L71.0247 38.4121Z" fill="#E8D3AF"/>
<path d="M77.8151 33.9644L74.9275 35.6124L75.1253 36.1266L78.026 34.5093L77.8151 33.9644Z" fill="#E8D3AF"/>
<path d="M70.5412 38.6712L70.3654 38.2185L67.5129 39.849L67.825 40.1918L70.5763 38.658L70.5412 38.6712Z" fill="#E8D3AF"/>
<path d="M78.2985 33.6917L78.5094 34.2411L80.2938 33.2479L80.3026 32.5447L78.2985 33.6917Z" fill="#E8D3AF"/>
<path d="M74.9759 51.6975L79.5731 49.0606L79.4149 48.6738L74.7737 51.3943L74.9759 51.6975Z" fill="#E8D3AF"/>
<path d="M76.0352 49.4079L79.0546 47.7246L78.8832 47.2852L75.8813 49.0035L76.0352 49.4079Z" fill="#E8D3AF"/>
<path d="M83.0585 44.9077L79.3666 47.0085L79.538 47.4567L83.243 45.3911L83.0585 44.9077Z" fill="#E8D3AF"/>
<path d="M83.542 44.6307L83.7266 45.1185L85.2956 44.2483L85.3 43.6243L83.542 44.6307Z" fill="#E8D3AF"/>
<path d="M75.3978 49.2805L73.9122 50.1287L74.1847 50.432L75.5516 49.6761L75.3978 49.2805Z" fill="#E8D3AF"/>
<path d="M84.8825 47.0742L80.6896 49.487L80.8566 49.9265L85.0363 47.4742L84.8825 47.0742Z" fill="#E8D3AF"/>
<path d="M77.9909 51.5482L80.2983 50.2386L80.1269 49.7947L77.8063 51.0648L77.9909 51.5482Z" fill="#E8D3AF"/>
<path d="M77.5074 51.8206L77.3185 51.3328L75.5824 52.4579L75.7494 52.8314L77.5074 51.8206Z" fill="#E8D3AF"/>
<path d="M76.413 47.3818L80.0301 45.3689L79.8368 44.8591L76.2372 46.9159L76.413 47.3818Z" fill="#E8D3AF"/>
<path d="M83.2034 42.9385L80.3202 44.5866L80.5136 45.1008L83.4143 43.4834L83.2034 42.9385Z" fill="#E8D3AF"/>
<path d="M75.9296 47.6414L75.7538 47.1887L72.9058 48.8192L73.2134 49.162L75.9691 47.6326L75.9296 47.6414Z" fill="#E8D3AF"/>
<path d="M83.6869 42.662L83.8979 43.2157L85.6823 42.2225L85.6911 41.5193L83.6869 42.662Z" fill="#E8D3AF"/>
<path d="M73.9124 45.3864L76.9274 43.7032L76.7604 43.2681L73.7585 44.9865L73.9124 45.3864Z" fill="#E8D3AF"/>
<path d="M78.9139 42.064L77.2438 42.9913L77.4152 43.4352L79.0985 42.5518L78.9139 42.064Z" fill="#E8D3AF"/>
<path d="M79.7886 41.5629L79.9776 42.0551L83.1728 40.2313L83.1772 39.6072L79.7886 41.5629Z" fill="#E8D3AF"/>
<path d="M73.275 45.259L71.7894 46.1116L72.0663 46.4149L73.4288 45.6546L73.275 45.259Z" fill="#E8D3AF"/>
<path d="M73.8507 43.7209L77.2833 41.8091L77.1031 41.3257L73.6837 43.277L73.8507 43.7209Z" fill="#E8D3AF"/>
<path d="M80.2983 39.502L77.5602 41.0665L77.7448 41.55L80.4961 40.0205L80.2983 39.502Z" fill="#E8D3AF"/>
<path d="M73.3893 43.9673L73.2267 43.541L70.5193 45.088L70.8138 45.4132L73.4288 43.9541L73.3893 43.9673Z" fill="#E8D3AF"/>
<path d="M80.7554 39.2381L80.9575 39.7611L82.654 38.8206L82.6584 38.1526L80.7554 39.2381Z" fill="#E8D3AF"/>
<path d="M54.2925 131.672C54.2925 131.672 70.7873 138.822 85.0317 135.992L96.0458 122.034C96.0458 122.034 64.6869 122.223 58.3931 117.441L54.2925 131.672Z" fill="#FCF2CA"/>
<path d="M58.3887 117.441L58.3667 117.511C58.4898 117.564 58.6128 117.612 58.7359 117.67C58.6216 117.595 58.4898 117.52 58.3887 117.441Z" fill="#F4E3BD"/>
<path d="M60.8939 118.698C62.1553 119.344 63.4167 120.065 64.6737 120.864C72.3168 125.721 77.3799 131.953 78.0436 136.651C80.3818 136.642 82.7331 136.449 85.0318 135.992L96.0459 122.033C96.0459 122.033 70.4972 122.187 60.8983 118.698H60.8939Z" fill="#F4E3BD"/>
<path d="M88.5479 123.167L72.585 108.708C72.585 108.708 83.454 99.2724 94.8505 85.1296L112.448 100.644C112.448 100.644 104.717 109.266 88.5523 123.167H88.5479Z" fill="#FCF2CA"/>
<path d="M95.022 103.927C96.5778 97.7211 97.1712 91.8407 96.9206 86.9492L112.449 100.639C112.449 100.639 104.718 109.262 88.5524 123.163L87.3833 122.104C90.4687 117.445 93.2288 111.095 95.022 103.927Z" fill="#FFFAD4"/>
<path d="M101.166 106.695L97.4216 103.395L97.6721 103.065L101.439 106.454L101.166 106.695Z" fill="#E8D3AF"/>
<path d="M97.0482 110.822L94.6396 108.717L95.0088 108.418L97.4349 110.492L97.0482 110.822Z" fill="#E8D3AF"/>
<path d="M94.222 108.378L93.554 107.75L93.9275 107.456L94.6088 108.049L94.222 108.378Z" fill="#E8D3AF"/>
<path d="M100.744 104.375L98.27 102.256L98.5425 101.883L100.995 104.032L100.744 104.375Z" fill="#E8D3AF"/>
<path d="M95.1363 98.8989L98.1469 101.536L97.87 101.914L94.833 99.312L95.1363 98.8989Z" fill="#E8D3AF"/>
<path d="M94.7451 98.5516L94.4374 98.9735L93.1497 97.8704L93.3035 97.2947L94.7451 98.5516Z" fill="#E8D3AF"/>
<path d="M101.391 104.375L102.604 105.438L102.256 105.671L101.14 104.713L101.391 104.375Z" fill="#E8D3AF"/>
<path d="M92.8112 100.565L96.2306 103.584L95.9581 103.958L92.5607 100.907L92.8112 100.565Z" fill="#E8D3AF"/>
<path d="M98.3007 105.997L96.4152 104.348L96.6921 103.97L98.6039 105.579L98.3007 105.997Z" fill="#E8D3AF"/>
<path d="M98.6919 106.339L99.0039 105.917L100.384 107.284L100.133 107.596L98.6919 106.339Z" fill="#E8D3AF"/>
<path d="M87.1944 101.597L89.2557 103.381L88.9788 103.755L86.9395 101.944L87.1944 101.597Z" fill="#E8D3AF"/>
<path d="M91.3258 105.79L89.4359 104.146L89.7128 103.768L91.6291 105.377L91.3258 105.79Z" fill="#E8D3AF"/>
<path d="M91.7169 106.133L92.0246 105.715L93.409 107.078L93.1541 107.398L91.7169 106.133Z" fill="#E8D3AF"/>
<path d="M83.1772 104.243L85.2385 106.027L84.966 106.401L82.9222 104.59L83.1772 104.243Z" fill="#E8D3AF"/>
<path d="M87.3086 108.436L85.4187 106.792L85.7 106.414L87.6118 108.023L87.3086 108.436Z" fill="#E8D3AF"/>
<path d="M87.6997 108.778L88.0074 108.361L89.3874 109.728L89.1369 110.04L87.6997 108.778Z" fill="#E8D3AF"/>
<path d="M100.903 102.428L97.9359 99.8919L98.2524 99.4568L101.193 102.032L100.903 102.428Z" fill="#E8D3AF"/>
<path d="M95.5054 97.0486L97.8612 99.1142L97.5403 99.5537L95.1626 97.5188L95.5054 97.0486Z" fill="#E8D3AF"/>
<path d="M101.302 102.762L101.584 102.38L103.913 104.419L103.526 104.678L101.267 102.744L101.302 102.762Z" fill="#E8D3AF"/>
<path d="M95.1098 96.7057L94.767 97.1759L93.3035 95.9234L93.4749 95.2686L95.1098 96.7057Z" fill="#E8D3AF"/>
<path d="M93.6418 113.991L89.8972 110.69L90.1477 110.361L93.9187 113.749L93.6418 113.991Z" fill="#E8D3AF"/>
<path d="M93.2199 111.67L90.7455 109.552L91.018 109.178L93.4704 111.327L93.2199 111.67Z" fill="#E8D3AF"/>
<path d="M87.6117 106.194L90.6268 108.831L90.3499 109.209L87.3085 106.607L87.6117 106.194Z" fill="#E8D3AF"/>
<path d="M87.2207 105.851L86.913 106.269L85.6252 105.166L85.7835 104.59L87.2207 105.851Z" fill="#E8D3AF"/>
<path d="M93.866 111.675L95.079 112.734L94.7362 112.967L93.6155 112.009L93.866 111.675Z" fill="#E8D3AF"/>
<path d="M85.2912 107.86L88.7105 110.879L88.4337 111.253L85.0406 108.203L85.2912 107.86Z" fill="#E8D3AF"/>
<path d="M90.7762 113.288L88.8907 111.644L89.1676 111.266L91.0795 112.874L90.7762 113.288Z" fill="#E8D3AF"/>
<path d="M91.1719 113.635L91.4795 113.213L92.8596 114.58L92.6091 114.896L91.1719 113.635Z" fill="#E8D3AF"/>
<path d="M93.3783 109.728L90.416 107.188L90.7325 106.757L93.6684 109.332L93.3783 109.728Z" fill="#E8D3AF"/>
<path d="M87.9854 104.348L90.3368 106.409L90.0159 106.849L87.6382 104.81L87.9854 104.348Z" fill="#E8D3AF"/>
<path d="M93.7781 110.057L94.0638 109.675L96.3888 111.714L96.002 111.973L93.7429 110.04L93.7781 110.057Z" fill="#E8D3AF"/>
<path d="M87.5898 104.001L87.2426 104.471L85.7791 103.219L85.9505 102.568L87.5898 104.001Z" fill="#E8D3AF"/>
<path d="M96.3096 108.348L93.8352 106.229L94.1077 105.856L96.5602 108.005L96.3096 108.348Z" fill="#E8D3AF"/>
<path d="M92.3454 104.34L93.7166 105.509L93.4398 105.887L92.0421 104.753L92.3454 104.34Z" fill="#E8D3AF"/>
<path d="M91.6333 103.716L91.3213 104.133L88.715 101.848L88.8732 101.268L91.6333 103.716Z" fill="#E8D3AF"/>
<path d="M96.9557 108.348L98.1688 109.416L97.8216 109.644L96.7052 108.686L96.9557 108.348Z" fill="#E8D3AF"/>
<path d="M96.7975 106.818L93.9846 104.406L94.2835 103.992L97.0744 106.44L96.7975 106.818Z" fill="#E8D3AF"/>
<path d="M91.6773 101.707L93.91 103.667L93.6067 104.08L91.3521 102.151L91.6773 101.707Z" fill="#E8D3AF"/>
<path d="M97.1799 107.135L97.448 106.766L99.6588 108.704L99.2896 108.95L97.1448 107.113L97.1799 107.135Z" fill="#E8D3AF"/>
<path d="M91.3037 101.382L90.9741 101.83L89.5808 100.639L89.7522 100.02L91.3037 101.382Z" fill="#E8D3AF"/>
<path d="M70.6907 162.704L82.3509 160.603L97.7513 166.778L82.2014 162.423L70.6907 162.704Z" fill="#FFFAD4"/>
<path d="M315.119 125.932L324.626 123.826L335.121 130.282L324.507 125.65L315.119 125.932Z" fill="#FCF2CA"/>
<path d="M315.119 114.984L324.626 112.875L335.121 119.335L324.507 114.703L315.119 114.984Z" fill="#F4E3BD"/>
<path d="M315.998 155.834L332.278 149.655L352.798 158.436L332.59 152.929L315.998 155.834Z" fill="#E8D3AA"/>
<path d="M316.754 166.571L333.719 169.314L352.882 164.365L333.592 167.648L316.754 166.571Z" fill="#E8D3AA"/>
<path d="M71.5476 154.529L83.0408 151.734L105.073 158.072L83.0188 153.567L71.5476 154.529Z" fill="#F4E3BD"/>
<path d="M95.8789 136.387L106.867 133.438L117.859 138.703L107.095 135.548L95.8789 136.387Z" fill="#F4E3BD"/>
<path d="M293.746 138.071L290.718 136.493L300.136 136.177L293.746 138.071Z" fill="#E8D3AA"/>
<path d="M133.228 182.955L117.485 175.831L117.797 182.323L132.595 185.847L133.228 182.955Z" fill="#EADCC7"/>
<path d="M123.691 183.408C121.507 183.03 119.489 182.468 117.771 181.791L117.797 182.323L132.6 185.843L133.114 183.487C130.692 184.019 127.326 184.032 123.691 183.404V183.408Z" fill="#FFF6DC"/>
<path d="M134.178 187.117L115.16 183.628L115.507 190.528L133.409 191.007L134.178 187.117Z" fill="#EADCC7"/>
<path d="M122.43 189.486C119.885 189.319 117.498 188.946 115.402 188.418L115.507 190.528L133.409 191.007L133.914 188.458C131.004 189.359 126.921 189.776 122.43 189.486Z" fill="#FFF6DC"/>
<path d="M291.548 167.182L287.615 167.837L294.884 191.394L299.227 190.15L291.548 167.182Z" fill="#E05434"/>
<path d="M291.891 170.008C291.891 169.147 291.254 168.417 290.472 168.417C289.689 168.417 289.109 169.147 289.179 170.008C289.245 170.825 289.874 171.463 290.595 171.463C291.315 171.463 291.891 170.825 291.891 170.008Z" fill="#FFF4A6"/>
<path d="M292.722 173.823L290.955 174.262L295.253 188.924L297.847 188.168L292.722 173.823Z" fill="#FFF4A6"/>
<path d="M291.329 169.986C291.263 169.494 290.849 169.129 290.406 169.186C289.962 169.243 289.694 169.705 289.799 170.193C289.9 170.654 290.304 170.971 290.709 170.914C291.113 170.861 291.394 170.452 291.329 169.986Z" fill="#CC9B6A"/>
<path d="M283.541 191.402C286.09 182.072 286.265 176.548 286.793 167.015L334.55 155.43C334.062 169.248 334.664 179.497 338.004 191.398H283.545L283.541 191.402Z" fill="#CCAA79"/>
<path d="M315.642 160.019C314.587 172.276 313.454 180.508 308.135 191.403H338.005C334.664 179.501 334.062 169.252 334.55 155.435L315.647 160.019H315.642Z" fill="#DDC090"/>
<path d="M305.366 189.196L330.476 191.363H304.101L305.366 189.196Z" fill="#CCAA79"/>
<path d="M318.262 162.128L309.779 164.69L317.444 164.268L318.262 162.128Z" fill="#DDC090"/>
<path d="M113.196 191.402H168.675C165.018 184.946 162.825 178.125 160.566 168.87H115.037C115.481 177.435 114.461 183.487 113.196 191.402Z" fill="#DDC090"/>
<path d="M151.367 191.402H168.67C165.014 184.946 162.821 178.125 160.561 168.87H143.693L151.363 191.402H151.367Z" fill="#CCAA79"/>
<path d="M133.281 191.402H157.402L153.789 189.416L133.281 191.402Z" fill="#CCAA79"/>
<path d="M136.626 169.182L111.873 168.782L116.844 170.496L136.626 169.182Z" fill="#DDC090"/>
<path d="M155.507 173.7L139.065 173.295L142.366 175.014L155.507 173.7Z" fill="#DDC090"/>
<path d="M128.042 189.055L111.604 188.651L115.217 189.737L128.042 189.055Z" fill="#DDC090"/>
<path d="M152.615 183.145L143.763 183.804L149.09 184.406L152.615 183.145Z" fill="#DDC090"/>
<path d="M159.309 179.822L150.655 180.006L155.832 179.154L159.309 179.822Z" fill="#BA9563"/>
<path d="M138.942 181.079L122.531 181.707L132.376 180.587L138.942 181.079Z" fill="#CCAA79"/>
<path d="M127.55 171.95L118.338 172.245L123.898 172.772L127.55 171.95Z" fill="#CCAA79"/>
<path d="M305.547 107.087L300.91 105.399L310.786 106.726L305.547 107.087Z" fill="#EFD9B1"/>
<path d="M302.527 110.927L297.706 111.657L310.232 112.69L302.527 110.927Z" fill="#DDC090"/>
<path d="M290.731 168.057L284.046 167.424L303.648 162.91L290.731 168.057Z" fill="#CCAA79"/>
<path d="M290.911 185.61L282.138 186.801L289.768 187.596L290.911 185.61Z" fill="#CCAA79"/>
<path d="M310.632 174.157L319.119 171.586L311.445 172.016L310.632 174.157Z" fill="#CCAA79"/>
<path d="M308.311 185.632L317.123 186.572L309.894 183.975L308.311 185.632Z" fill="#CCAA79"/>
<path d="M334.414 161.328L325.72 162.366L334.418 162.247L334.414 161.328Z" fill="#CCAA79"/>
<path d="M332.735 157.76L337.521 154.6L329.047 156.85L332.735 157.76Z" fill="#DDC090"/>
<path d="M288.019 179.98L293.623 180.613L302.927 178.354L288.019 179.98Z" fill="#B78C62"/>
<path d="M291.364 167.604L304.101 165.71L307.441 163.543L291.364 167.604Z" fill="#B78C62"/>
<path d="M326.05 183.865L315.84 182.511L331.742 182.691L326.05 183.865Z" fill="#CCAA79"/>
<path d="M331.741 167.156L337.881 167.336L333.548 168.602L331.741 167.156Z" fill="#DDC090"/>
<path d="M330.836 173.748L336.98 173.928L332.642 175.194L330.836 173.748Z" fill="#DDC090"/>
<path d="M178.669 192H170.604C170.604 192 176.652 187.451 177.773 188.15C178.893 188.849 178.669 192 178.669 192Z" fill="#EDD09D"/>
</svg>
