<svg width="306" height="181" viewBox="0 0 306 181" fill="none" xmlns="http://www.w3.org/2000/svg">
<g clip-path="url(#clip0_477_248)">
<path d="M28.1588 24.819C22.4729 17.9618 16.7869 11.1116 11.094 4.25445C10.5448 3.5951 9.23108 3.10927 9.10596 3.95601C17.3986 13.4714 24.9335 23.6391 31.6205 34.3413L28.1588 24.819Z" fill="#BF8F30"/>
<path d="M15.0144 9.96646C15.3272 13.1521 15.5357 16.3517 15.6469 19.5582C15.6956 21.0781 15.7373 22.605 15.7164 24.1319C15.6956 25.5616 15.6122 27.0053 15.3411 28.4142C15.209 29.1082 15.0352 29.7884 14.8058 30.4547C14.6946 30.7878 14.5695 31.114 14.4235 31.4333C14.3123 31.6831 14.1941 31.926 13.9161 32.0163C13.8118 32.051 13.7423 32.051 13.652 32.0232C13.5546 31.9954 13.4712 31.9399 13.3809 31.8636C13.1793 31.6762 13.0403 31.468 12.9152 31.2181C12.6093 30.6351 12.373 30.0174 12.1992 29.3858C11.4763 26.7693 11.8099 23.9792 12.366 21.3627C12.6649 19.9538 13.0403 18.5657 13.4017 17.1706C13.8049 15.6229 14.215 14.0683 14.6182 12.5205C14.7155 12.1388 14.8197 11.764 14.9171 11.3823C14.9727 11.181 14.8475 10.9659 14.646 10.9104C14.4305 10.8479 14.2428 10.9867 14.1733 11.181C13.4504 13.1035 12.6858 15.0191 11.6223 16.782C11.1009 17.6495 10.5101 18.4824 9.81497 19.225C9.46742 19.5998 9.09206 19.9607 8.69585 20.2869C8.32745 20.5923 7.93819 20.9115 7.51417 21.1336C7.38905 21.1961 7.20137 21.2586 7.07625 21.2725C7.09711 21.2725 6.99284 21.2725 6.97199 21.2725C6.93723 21.2725 6.89552 21.2725 6.86077 21.2725C6.83297 21.2725 6.73565 21.2655 6.76345 21.2725C6.79126 21.2725 6.69394 21.2586 6.66614 21.2516C6.47151 21.21 6.42285 21.1892 6.24908 21.0851C6.1031 20.9948 6.05445 20.9532 5.92238 20.8074C5.90847 20.7936 5.83896 20.7103 5.88067 20.7589C5.85286 20.7242 5.83201 20.6895 5.81116 20.6548C5.7625 20.5853 5.72079 20.509 5.68604 20.4327C5.66519 20.391 5.68604 20.4327 5.68604 20.4396C5.68604 20.4257 5.67214 20.4049 5.66519 20.391C5.65128 20.3494 5.63738 20.3077 5.62348 20.2661C5.60958 20.2244 5.60263 20.1828 5.59567 20.1412C5.59567 20.1203 5.59567 20.1065 5.58872 20.0856C5.58872 20.1273 5.58872 20.1065 5.58872 20.0787C5.58872 19.9885 5.58872 19.9052 5.58872 19.815C5.58872 19.7456 5.58177 19.8358 5.58872 19.7664C5.60263 19.7178 5.60958 19.6623 5.62348 19.6137C5.67214 19.4471 5.74165 19.3152 5.85286 19.1487C7.01369 17.4552 8.29964 15.845 9.68985 14.332C11.087 12.8051 12.5885 11.3823 14.1872 10.0636C14.3818 9.90399 14.5834 9.74436 14.778 9.58473C14.9379 9.45287 14.9171 9.17525 14.778 9.03644C14.6182 8.87681 14.3957 8.90457 14.2289 9.03644C12.5328 10.3898 10.9341 11.8681 9.44657 13.4575C7.95904 15.0469 6.58968 16.7473 5.34544 18.531C5.06739 18.9266 4.85191 19.3152 4.8102 19.808C4.77545 20.2036 4.87971 20.6131 5.07434 20.9671C5.45665 21.6542 6.24212 22.1261 7.0415 22.0567C7.53502 22.0151 7.93123 21.8069 8.32744 21.5292C8.77926 21.2169 9.21023 20.8768 9.61339 20.509C10.4267 19.7664 11.1287 18.9127 11.7474 18.0035C12.9708 16.199 13.8327 14.1793 14.6112 12.1596C14.7085 11.9028 14.8058 11.653 14.9032 11.3962C14.6529 11.3268 14.4096 11.2574 14.1594 11.188C13.7423 12.7912 13.3183 14.3945 12.9012 15.9908C12.512 17.4691 12.1088 18.9405 11.7682 20.4257C11.1287 23.2088 10.6839 26.1446 11.2886 28.9764C11.4346 29.6704 11.657 30.3506 11.942 31.003C12.1992 31.5929 12.505 32.2245 13.0542 32.5993C13.6867 33.0296 14.4722 32.7658 14.8893 32.1759C15.0978 31.8775 15.2229 31.4888 15.355 31.1557C15.487 30.8156 15.5983 30.4755 15.7025 30.1285C16.5645 27.2135 16.5089 24.1111 16.4393 21.1059C16.3629 17.7953 16.1752 14.4916 15.8763 11.1949C15.8416 10.7924 15.7998 10.3898 15.7651 9.98728C15.7442 9.77907 15.6052 9.59861 15.3758 9.59861C15.1812 9.59861 14.9727 9.77213 14.9866 9.98728L15.0144 9.96646Z" fill="#BF8F30"/>
<path d="M14.493 10.3204C13.4086 13.2215 12.4216 16.1642 11.5319 19.1278C10.6421 22.0983 9.84275 25.0896 9.14764 28.1087C8.45253 31.1278 7.84779 34.1677 7.34731 37.2215C6.83988 40.2823 6.43672 43.3638 6.13087 46.4523C5.82503 49.5339 5.6165 52.6293 5.50528 55.7248C5.49138 56.1065 5.47747 56.4813 5.47052 56.863C5.45662 57.3558 6.22819 57.3558 6.24209 56.863C6.3255 53.7815 6.50623 50.6999 6.78427 47.6322C7.06232 44.5645 7.44463 41.5107 7.9173 38.4708C8.39692 35.424 8.97386 32.391 9.64116 29.3858C10.3154 26.3597 11.087 23.3615 11.9559 20.384C12.8178 17.4274 13.7771 14.4916 14.8336 11.5905C14.9657 11.2365 15.0978 10.8756 15.2298 10.5216C15.2993 10.3273 15.1464 10.0983 14.9587 10.0497C14.7432 9.98722 14.5556 10.126 14.4861 10.3204H14.493Z" fill="#BF8F30"/>
<path d="M12.79 16.8236C11.4693 19.1834 10.239 21.5917 9.10596 24.0417C7.97293 26.4917 6.93027 28.9833 5.98493 31.5166C5.03958 34.0359 4.19155 36.59 3.44779 39.1788C2.69707 41.7746 2.04367 44.398 1.48758 47.0424C0.931498 49.7005 0.479678 52.3726 0.132125 55.0655C0.0904186 55.3917 0.0487121 55.7179 0.00700572 56.0441C-0.0207986 56.2523 0.201636 56.4328 0.396266 56.4328C0.625651 56.4328 0.757721 56.2523 0.785526 56.0441C1.10527 53.3929 1.52929 50.7624 2.05757 48.1459C2.58585 45.5224 3.21145 42.9128 3.92741 40.3309C4.65032 37.7491 5.47055 35.2019 6.38114 32.6826C7.29173 30.1771 8.29963 27.6993 9.3979 25.2702C10.5031 22.8271 11.6987 20.4327 12.9847 18.0799C13.1445 17.7884 13.3044 17.5038 13.4643 17.2192C13.7076 16.7889 13.0403 16.3933 12.797 16.8306L12.79 16.8236Z" fill="#BF8F30"/>
<path d="M262.41 22.6675C268.096 15.8103 273.789 8.96012 279.475 2.10296C280.024 1.44361 281.338 0.957782 281.463 1.80452C273.17 11.3199 265.635 21.4876 258.948 32.1898L262.41 22.6675Z" fill="#BF8F30"/>
<path d="M73.584 107.161C71.3249 112.491 68.3081 117.509 64.6519 121.999C66.3896 124.012 66.8414 127.045 65.764 129.474C64.6866 131.903 62.1286 133.604 59.4664 133.666C57.381 133.715 55.2818 132.847 53.2591 133.34C51.5352 133.756 50.2075 135.075 48.866 136.234C45.2028 139.399 40.7958 141.696 36.1038 142.89C35.1307 143.14 33.9212 143.265 33.2817 142.494C32.4059 141.433 33.4346 139.899 34.4356 138.955C40.9001 132.861 48.3933 127.697 53.5371 120.459C55.6155 117.537 57.2559 114.337 58.8964 111.158C61.7463 105.62 64.5893 100.088 67.4392 94.5498L73.577 107.161H73.584Z" fill="#00A693"/>
<mask id="mask0_477_248" style="mask-type:luminance" maskUnits="userSpaceOnUse" x="32" y="94" width="42" height="50">
<path d="M73.584 107.161C71.3249 112.491 68.3081 117.509 64.6519 121.999C66.3896 124.012 66.8414 127.045 65.764 129.474C64.6866 131.903 62.1286 133.604 59.4664 133.666C57.381 133.715 55.2818 132.847 53.2591 133.34C51.5352 133.756 50.2075 135.075 48.866 136.234C45.2028 139.399 40.7958 141.696 36.1038 142.89C35.1307 143.14 33.9212 143.265 33.2817 142.494C32.4059 141.433 33.4346 139.899 34.4356 138.955C40.9001 132.861 48.3933 127.697 53.5371 120.459C55.6155 117.537 57.2559 114.337 58.8964 111.158C61.7463 105.62 64.5893 100.088 67.4392 94.5498L73.577 107.161H73.584Z" fill="white"/>
</mask>
<g mask="url(#mask0_477_248)">
<path d="M55.0037 135.825C54.2043 133.861 54.6353 131.563 55.678 129.71C56.7206 127.864 58.3194 126.393 59.9529 125.039C61.35 123.887 62.8028 122.777 64.4502 122.027C64.8603 121.84 65.2913 121.673 65.7362 121.694C67.0569 121.749 67.752 123.269 67.9814 124.567C68.5444 127.829 67.9605 131.362 65.9933 134.027C64.0192 136.692 60.5785 138.323 57.3115 137.74L55.0107 135.811L55.0037 135.825Z" fill="#443822"/>
<path d="M39.0232 144.132C39.0719 140.266 37.1256 136.428 33.9768 134.187C32.9619 135.131 31.9331 136.088 31.1616 137.24C30.3831 138.393 29.8687 139.767 29.9868 141.148C30.1676 143.251 31.8358 145.021 33.796 145.791C34.9012 146.228 36.1594 146.388 37.2855 146.013L39.0232 144.139V144.132Z" fill="#443822"/>
<path d="M35.8952 139.808C38.2447 136.928 41.1363 134.568 44.0419 132.278C46.9474 129.995 49.8669 127.732 52.4249 125.053C54.9133 122.443 57.0751 119.542 58.9867 116.495C60.933 113.4 62.6151 110.145 64.1583 106.834C65.7084 103.51 67.1194 100.123 68.5027 96.7291C68.6695 96.3196 68.8363 95.9101 69.0032 95.5006C69.0935 95.2716 68.7251 95.1675 68.6278 95.3965C67.2515 98.7834 65.8613 102.163 64.3459 105.488C62.8376 108.799 61.211 112.054 59.3342 115.17C57.4783 118.258 55.3791 121.215 52.9601 123.887C50.4925 126.622 47.6564 128.94 44.7648 131.209C41.8731 133.479 38.9398 135.748 36.4861 138.504C36.1872 138.837 35.8952 139.177 35.6172 139.524C35.4642 139.711 35.7353 139.989 35.8883 139.795L35.8952 139.808Z" fill="#443822"/>
<path d="M35.7423 140.718C38.8008 138.358 41.8454 135.977 44.876 133.576C46.3914 132.375 47.8997 131.175 49.4081 129.96C50.854 128.801 52.2928 127.642 53.6761 126.406C55.0524 125.171 56.3244 123.845 57.52 122.436C58.7087 121.028 59.8278 119.556 60.9469 118.092C63.2408 115.087 65.486 112.047 67.6825 108.972C69.879 105.897 72.0269 102.795 74.1331 99.651C74.3903 99.2693 74.6475 98.8806 74.9047 98.4989C75.0437 98.2907 74.71 98.0963 74.571 98.3045C72.4787 101.449 70.3447 104.565 68.1552 107.646C65.9864 110.707 63.769 113.733 61.503 116.724C59.2647 119.688 57.0404 122.7 54.3434 125.268C53.0157 126.531 51.6047 127.697 50.1866 128.849C48.7061 130.043 47.2185 131.237 45.7241 132.417C42.7003 134.818 39.6627 137.206 36.6043 139.572C36.2289 139.864 35.8535 140.149 35.4851 140.44C35.2905 140.593 35.5616 140.863 35.7562 140.711L35.7423 140.718Z" fill="#443822"/>
<path d="M37.209 142.085C40.4482 140.475 43.5414 138.573 46.4609 136.442C49.3873 134.312 52.1468 131.966 54.7465 129.453C57.4296 126.871 59.9459 124.116 62.3162 121.25C64.8117 118.244 67.1542 115.114 69.3855 111.915C71.6307 108.701 73.7716 105.419 75.8639 102.108C76.1211 101.698 76.3783 101.289 76.6355 100.879C76.7675 100.671 76.4339 100.477 76.3018 100.685C74.2304 103.996 72.1103 107.279 69.8999 110.499C67.6894 113.712 65.3886 116.856 62.9349 119.889C60.5785 122.797 58.09 125.608 55.4277 128.246C52.8697 130.786 50.1588 133.18 47.2811 135.353C44.4172 137.518 41.3866 139.475 38.203 141.141C37.8068 141.349 37.4106 141.551 37.0074 141.752C36.785 141.863 36.9796 142.196 37.202 142.085H37.209Z" fill="#443822"/>
</g>
<path d="M264.975 20.0579C251.914 29.7537 234.696 41.4691 221.642 51.158C218.222 53.6982 214.767 56.2592 210.875 57.9944C206.968 59.7434 202.728 60.6109 198.529 61.4715C192.524 62.7 186.511 63.9284 180.505 65.1569C175.389 66.2049 170.225 67.2529 165.005 67.1002C159.652 66.9475 154.418 65.5317 149.087 65.0875C142.191 64.5184 135.282 65.5733 128.372 65.9551C115.388 66.6699 102.41 64.9834 89.5159 63.3038C83.9481 62.5751 78.3108 61.8324 73.0836 59.7919C69.3856 58.3483 65.9657 56.2801 62.6431 54.1216C50.4995 46.2303 39.3014 36.8885 29.3613 26.3667C40.9001 40.3934 52.4528 54.4339 65.0342 67.5305C70.9218 73.652 77.0943 79.6208 84.3582 84.0349C92.2129 88.803 101.082 91.607 109.848 94.3623C122.207 98.249 134.559 102.129 146.918 106.015C154.481 108.389 162.294 110.797 170.176 110.013C180.582 108.979 189.59 102.58 197.695 95.9864C212.446 83.9794 226.049 70.5774 238.269 56.0163L264.968 20.0717L264.975 20.0579Z" fill="#BF8F30"/>
<path d="M146.556 74.0684C141.718 62.9498 131.876 43.232 127.038 32.1134C126.19 30.1562 125.293 28.1435 123.722 26.6999C121.734 24.8745 118.919 24.1527 116.215 24.1527C103.78 24.1527 74.1749 60.6734 69.761 66.8712C74.8909 71.438 80.5977 75.3524 86.7146 78.4895C87.3055 78.7949 87.9519 79.0933 88.6053 78.9892C89.3282 78.8782 89.8704 78.3021 90.364 77.7538C98.0935 69.1546 105.83 60.5623 113.56 51.9631C116.125 60.4999 119.162 68.8909 122.659 77.0875C128.553 77.1361 134.455 76.8307 140.314 76.1714L146.563 74.0545L146.556 74.0684Z" fill="#141115"/>
<path d="M208.261 53.0111C199.621 51.9145 193.768 55.5374 188.673 56.9672C184.961 58.0082 181.527 60.4374 178.337 62.6028C175.695 64.3934 174.618 67.6763 171.886 69.3212C166.575 72.5207 159.916 72.1112 153.737 71.5976C152.764 77.844 151.791 84.0904 150.824 90.3369C158.429 94.4525 167.563 94.98 176.078 93.5017C184.593 92.0234 192.656 88.6781 200.636 85.3536C207.58 82.4594 215.302 78.7532 217.541 71.5768C218.451 68.6549 218.291 65.5247 218.097 62.4709C217.965 60.4513 215.845 58.9244 214.677 57.2725C212.487 54.191 209.957 53.5108 206.183 53.7399L208.275 53.0042L208.261 53.0111Z" fill="#00A693"/>
<path d="M265.003 20.0024C257.655 23.9376 252.908 31.2598 247.562 37.6519C230.796 57.689 207.754 75.5745 183.891 86.2559C175.41 90.0523 165.581 87.9424 156.434 89.5804C143.352 91.9332 129.77 89.8788 117.167 85.666C104.558 81.4531 92.7759 75.1442 81.112 68.766C73.0696 64.3727 65.0134 59.903 57.819 54.2327C52.8351 50.3044 48.3099 45.8347 43.8335 41.3373C36.2151 33.6889 28.694 25.9364 21.2842 18.0868C28.9095 32.5993 37.2786 46.7162 46.3428 60.3819C52.0079 68.9187 58.0345 77.3791 65.8892 83.9725C73.5979 90.4479 82.7803 94.8829 91.8514 99.2484C102.306 104.28 112.753 109.305 123.208 114.337C137.27 121.104 152.687 128.044 167.924 124.685C179.407 122.152 188.77 114.15 197.612 106.411C211.695 94.0917 225.826 81.7238 238.046 67.5653C250.266 53.4067 260.596 37.298 265.969 19.3916L264.989 19.9954L265.003 20.0024Z" fill="#F4BF4B"/>
<path d="M143.331 71.8405C132.911 68.4953 122.492 65.143 112.072 61.7977C109.486 60.9649 106.859 60.1251 104.141 60.0071C100.617 59.8474 97.1203 60.9163 93.9923 62.5403C88.0213 65.6427 83.3155 70.6746 78.7417 75.6092C70.4143 84.5832 62.0869 93.5572 53.7595 102.538C60.0919 110.596 66.1741 115.961 73.9315 122.672C83.0652 107.348 94.7917 95.1049 105.462 80.8076C120.191 87.8869 136.769 91.0934 153.076 90.0037C153.549 84.5069 154.022 79.017 154.494 73.5201C151.457 72.9371 148.419 72.3541 145.389 71.7642L143.338 71.8405H143.331Z" fill="#141115"/>
<path d="M145.382 68.4884L153.417 70.2096L180.026 80.6897L179.358 82.2374L145.43 74.9569L145.382 68.4884Z" fill="#F4AF88"/>
<path d="M176.675 80.2525C175.702 80.0928 174.729 79.9193 173.763 79.7319C172.644 79.5237 171.518 79.3016 170.399 79.0726C169.182 78.8297 167.973 78.5729 166.756 78.323C165.505 78.0593 164.261 77.7886 163.01 77.5179C161.779 77.2473 160.556 76.9766 159.326 76.7059C158.179 76.4491 157.025 76.1923 155.878 75.9286C154.863 75.6995 153.855 75.4705 152.84 75.2345C152.02 75.0471 151.2 74.8597 150.379 74.6654C149.809 74.5335 149.24 74.4017 148.67 74.2629C148.405 74.2004 148.141 74.1518 147.877 74.0755C147.863 74.0755 147.856 74.0755 147.842 74.0685C147.648 74.02 147.731 73.7215 147.926 73.7701C148.106 73.8117 148.287 73.8534 148.461 73.895C148.961 74.013 149.462 74.131 149.962 74.249C150.727 74.4294 151.492 74.6029 152.256 74.7765C153.229 74.9986 154.196 75.2206 155.169 75.4427C156.288 75.6995 157.407 75.9494 158.533 76.1993C159.743 76.4699 160.959 76.7406 162.175 77.0043C163.427 77.275 164.671 77.5457 165.922 77.8164C167.145 78.0801 168.376 78.3369 169.606 78.5868C170.753 78.8227 171.9 79.0518 173.054 79.2739C174.069 79.4682 175.077 79.6556 176.091 79.8291C176.314 79.8638 176.536 79.9055 176.759 79.9402C176.96 79.9749 176.87 80.2733 176.675 80.2386V80.2525Z" fill="#B3755A"/>
<path d="M146.348 70.0709C146.334 70.0084 157.247 74.3531 161.675 76.0049C161.876 76.0605 146.257 72.6458 146.285 72.5902L146.341 70.0778L146.348 70.0709Z" fill="#B3755A"/>
<path d="M146.292 75.3664C146.814 75.2623 147.182 74.7556 147.279 74.2351C147.384 73.7145 147.279 73.1732 147.168 72.6527L144.297 35.9932C144.283 35.8058 144.249 35.6184 144.193 35.431C143.908 34.4316 143.109 33.6681 142.094 33.4322L118.53 27.9284C117.216 27.623 115.986 28.6849 116.104 30.0244L118.968 63.0957C119.065 64.1853 119.767 65.1223 120.789 65.5179L146.278 75.3525L146.292 75.3664Z" fill="#F4AF88"/>
<path d="M177.718 80.7868L177.614 81.5156L165.992 78.9268L166.019 78.4132L177.718 80.7868Z" fill="#B3755A"/>
<path d="M147.029 69.7376C147.154 70.6607 147.203 71.5907 147.231 72.5208C147.244 72.9858 147.265 73.4508 147.258 73.9227C147.258 74.3392 147.196 74.7903 146.932 75.1304C146.681 75.4427 146.299 75.6301 145.903 75.5329C145.708 75.4843 145.792 75.1859 145.986 75.2345C146.396 75.3316 146.744 74.9638 146.855 74.6098C147.015 74.1101 146.939 73.541 146.932 73.0205C146.911 71.9516 146.869 70.8759 146.723 69.814C146.695 69.6196 147.001 69.5364 147.029 69.7376Z" fill="#B3755A"/>
<path d="M118.933 29.2748C118.37 29.136 117.814 29.5177 117.536 29.9897C117.167 30.6213 117.244 31.4264 117.355 32.1135C117.39 32.3078 117.084 32.3911 117.049 32.1898C116.917 31.3917 116.841 30.4755 117.306 29.7607C117.668 29.1985 118.342 28.8029 119.016 28.9694C119.211 29.018 119.127 29.3165 118.933 29.2679V29.2748Z" fill="#B3755A"/>
<path d="M121.199 64.9349C120.58 64.6573 119.885 64.3103 119.621 63.6371C119.461 63.2414 119.489 62.7973 119.475 62.3808C119.461 61.9019 119.447 61.43 119.433 60.9511C119.433 60.7498 119.739 60.7568 119.746 60.9511C119.76 61.3953 119.767 61.8395 119.781 62.2767C119.795 62.6723 119.76 63.1026 119.892 63.4844C120.107 64.109 120.803 64.4144 121.359 64.6642C121.539 64.7475 121.38 65.0113 121.192 64.928L121.199 64.9349Z" fill="#B3755A"/>
<path d="M136.985 33.5086C134.51 32.9325 132.029 32.3495 129.554 31.7734C128.845 31.6069 128.136 31.4403 127.434 31.2737C127.239 31.2252 127.323 30.9267 127.517 30.9753C129.992 31.5514 132.473 32.1344 134.948 32.7104C135.657 32.877 136.366 33.0436 137.068 33.2101C137.263 33.2587 137.179 33.5571 136.985 33.5086Z" fill="#B3755A"/>
<path opacity="0.3" d="M127.496 49.3952C127.642 51.4287 128.72 53.0181 129.902 52.9348C131.083 52.8515 131.931 51.1303 131.785 49.0967C131.639 47.0632 130.562 45.4738 129.38 45.5571C128.199 45.6404 127.35 47.3616 127.496 49.3952Z" fill="white"/>
<path d="M224.262 26.457C223.957 29.0111 221.287 40.5184 217.318 47.1465C215.998 49.3536 210.965 52.5809 208.442 53.1084C208.539 49.2911 208.636 45.4808 208.734 41.6636L224.262 26.457Z" fill="#141115"/>
<path d="M195.756 25.4298L194.463 36.2222C194.421 36.25 189.062 39.8174 189.062 39.8174L193.504 40.4975C193.08 42.9197 192.6 43.8428 192.183 46.272C192.086 46.8272 191.995 47.4172 192.218 47.9377C192.552 48.715 193.462 49.0412 194.289 49.2286C195.965 49.6034 198.238 50.0337 199.948 49.8949C199.843 50.3113 199.273 54.0592 199.183 54.4201C198.453 57.4183 202.373 59.8544 202.373 59.8544C204.911 60.1321 208.483 59.3547 209.116 56.8839C209.749 54.3992 211.028 47.9307 211.674 45.4391C211.591 46.855 213.419 47.7711 214.76 47.2922C216.095 46.8133 216.915 45.4738 217.429 44.1482C217.937 42.8295 218.243 41.3026 217.631 40.0256C217.019 38.7485 215.191 38.0198 214.121 38.9429C214.607 35.0909 215.094 31.239 215.58 27.387L198.189 26.0406L195.756 25.4298Z" fill="#FED5B7"/>
<path d="M201.567 35.542C200.017 35.4934 198.453 35.9793 197.216 36.9162C197.049 37.0412 196.966 37.2494 197.077 37.4437C197.174 37.6033 197.438 37.7074 197.605 37.5825C198.745 36.7219 200.135 36.2638 201.567 36.3124C202.061 36.3263 202.061 35.5559 201.567 35.542Z" fill="#141115"/>
<path d="M196.625 41.8926C195.763 42.1424 194.852 42.198 193.963 42.0592C193.858 42.0453 193.754 42.0869 193.726 42.191C193.699 42.2813 193.761 42.4131 193.858 42.427C194.818 42.5797 195.791 42.5242 196.722 42.2604C196.959 42.191 196.861 41.8232 196.618 41.8856L196.625 41.8926Z" fill="#824821"/>
<path d="M215.323 40.7959C214.19 41.5247 213.238 42.5172 212.564 43.6762C212.439 43.8914 212.772 44.0857 212.897 43.8706C213.544 42.767 214.447 41.8231 215.518 41.1291C215.726 40.9972 215.532 40.6641 215.323 40.7959Z" fill="#824821"/>
<path d="M215.615 43.0516C215.17 42.6283 214.58 42.3784 213.968 42.3715C213.718 42.3715 213.718 42.7532 213.968 42.7601C214.475 42.7671 214.976 42.9753 215.344 43.3292C215.525 43.5028 215.796 43.2321 215.615 43.0586V43.0516Z" fill="#824821"/>
<path d="M213.363 37.1244L211.952 41.2679C211.785 41.7537 211.299 42.0452 210.791 41.9758C210.784 41.9758 210.777 41.9758 210.77 41.9758C210.117 41.8856 209.714 41.2193 209.922 40.5947C211.389 36.1528 212.418 31.5929 212.974 26.9844C209.227 27.8451 205.418 28.4697 201.574 28.8445C198.773 29.1152 197.779 29.2332 195.283 28.0394C192.788 26.8456 191.092 23.8959 192.378 21.6056C205.321 15.5674 211.723 15.852 214.593 16.4003C217.464 16.9416 220.036 19.4679 219.501 22.1053C221.183 21.1822 223.484 22.4801 224.082 24.1874C224.686 25.8948 224.102 27.741 223.47 29.4414C221.996 33.3835 220.342 36.6664 217.819 40.1297C216.811 38.6097 214.482 39.2552 212.564 39.5328L213.37 37.1314L213.363 37.1244Z" fill="#141115"/>
<path d="M198.418 31.5721C198.37 31.8913 198.342 32.2106 198.335 32.5299C198.335 32.6756 198.356 32.8561 198.495 32.9046C198.564 32.9255 198.634 32.9046 198.703 32.8908C200.622 32.4119 202.763 32.8769 204.306 34.1123C202.923 32.4396 200.816 31.2181 198.655 31.4263L198.418 31.5721Z" fill="#141115"/>
<path opacity="0.42" d="M199.948 49.8949L206.461 49.9712L199.475 52.3935L199.948 49.8949Z" fill="#824821"/>
<path d="M215.038 70.383C212.96 79.7318 210.068 88.8932 206.398 97.7354C205.585 99.6926 204.681 101.712 203.048 103.073C200.365 105.307 196.291 105.155 193.163 103.593C190.042 102.031 187.665 99.3247 185.461 96.6249C179.219 88.9973 176.043 81.7862 171.052 73.2911C168.459 74.0476 164.747 75.2552 161.223 70.2026C160.34 71.3755 159.145 73.7283 158.046 75.6994C157.636 76.4282 156.517 76.0395 156.656 75.2136C157.025 72.9163 157.887 70.2651 158.769 69.0366C158.241 69.8764 157.386 71.9446 156.649 73.5826C156.316 74.3183 155.217 74.0754 155.217 73.2703C155.217 71.2437 155.919 68.6479 156.816 67.7665C156.427 68.3009 155.815 69.6682 155.224 70.9383C155.03 71.3617 154.39 71.1396 154.494 70.6884C154.988 68.5994 155.725 66.1286 156.26 64.914C156.677 63.9701 157.212 63.0123 158.102 62.4779C159.986 61.3396 173.728 65.1638 174.743 66.0175C181.583 71.7573 187.971 79.6069 194.213 85.9921C194.866 81.7307 195.693 75.7064 196.347 71.4449C196.465 70.6884 196.597 69.8972 197.077 69.3073C197.591 68.6688 198.418 68.3842 199.211 68.1899C204.48 66.9267 209.936 68.7798 215.038 70.6051L215.052 70.3761L215.038 70.383Z" fill="#FED5B7"/>
<path d="M159.59 66.9405C158.554 68.5646 157.748 70.3344 157.198 72.1806C157.039 72.7081 156.907 73.2494 156.788 73.7908C156.74 74.0337 157.108 74.1378 157.164 73.8949C157.671 71.5004 158.61 69.2101 159.923 67.1418C160.055 66.9336 159.722 66.7393 159.59 66.9475V66.9405Z" fill="#824821"/>
<path d="M158.026 65.0041C156.809 66.9266 155.85 69.0088 155.176 71.1881C155.099 71.4241 155.475 71.5282 155.551 71.2922C156.211 69.1476 157.157 67.1002 158.359 65.2054C158.491 64.9972 158.158 64.8029 158.026 65.0111V65.0041Z" fill="#824821"/>
<path d="M160.674 68.1135C159.68 66.7324 158.728 65.3235 157.817 63.8868C157.685 63.6786 157.351 63.8729 157.483 64.0811C158.394 65.5178 159.346 66.9267 160.34 68.3079C160.486 68.5092 160.82 68.3148 160.674 68.1135Z" fill="#824821"/>
<path d="M173.012 71.0146C172.491 71.7087 171.851 72.3125 171.142 72.8122C171.059 72.8747 171.017 72.9788 171.073 73.0759C171.121 73.1592 171.254 73.2078 171.337 73.1453C172.102 72.6109 172.776 71.9585 173.346 71.2089C173.408 71.1257 173.36 70.9938 173.276 70.9452C173.179 70.8897 173.075 70.9313 173.012 71.0146Z" fill="#824821"/>
<path d="M194.025 86.117C194.449 88.4212 194.227 90.8226 193.4 93.0158C193.309 93.2518 193.685 93.349 193.775 93.1199C194.623 90.8573 194.831 88.3865 194.401 86.0199C194.359 85.7769 193.983 85.881 194.025 86.124V86.117Z" fill="#824821"/>
<path d="M218.139 63.2622C218.083 69.6474 217.214 78.9615 215.101 85.2287C214.997 85.5341 214.872 85.8742 214.552 86.0616C214.295 86.2212 213.961 86.249 213.648 86.2698C206.801 86.7556 199.941 86.1449 193.56 84.4861C193.295 84.4167 193.024 84.3404 192.864 84.1599C192.711 83.9864 192.691 83.7504 192.677 83.5283C192.524 80.7522 192.447 77.9343 193.136 75.1651C193.824 72.3959 195.36 69.6336 197.973 67.6902C200.754 65.622 204.501 64.6642 208.122 64.4768C211.744 64.2894 213.676 61.9019 217.186 62.4085L218.125 63.2553L218.139 63.2622Z" fill="#00A693"/>
<path d="M105.211 80.0442C103.884 77.6497 102.563 75.2484 101.235 72.8539C100.86 72.1807 100.492 71.5074 100.116 70.8342C99.9981 70.6191 99.6645 70.8134 99.7826 71.0286C101.11 73.423 102.431 75.8244 103.759 78.2189C104.134 78.8921 104.502 79.5653 104.878 80.2385C104.996 80.4537 105.33 80.2594 105.211 80.0442Z" fill="#C2B38C"/>
<path d="M104.509 79.6764C103.501 78.1425 102.271 76.7544 100.867 75.5676C100.471 75.2345 100.061 74.9152 99.6366 74.6168C99.4351 74.471 99.2404 74.8042 99.442 74.9499C101.312 76.2825 102.925 77.9551 104.183 79.8707C104.322 80.0789 104.655 79.8846 104.516 79.6764H104.509Z" fill="#C2B38C"/>
<path d="M106.066 60.2083C103.015 58.5357 99.2473 58.2511 95.9734 59.4171C92.7898 60.5554 90.4264 63.0401 88.1882 65.4623C86.9231 66.8365 85.6649 68.2176 84.2261 69.4114C84.0384 69.571 84.3095 69.8417 84.4972 69.6821C87.0135 67.593 88.9667 64.9417 91.3787 62.7486C92.5743 61.6658 93.895 60.7011 95.3895 60.0487C96.9535 59.3686 98.6704 59.0493 100.373 59.084C102.292 59.1187 104.197 59.6045 105.879 60.5276C106.094 60.6456 106.289 60.3125 106.073 60.1945L106.066 60.2083Z" fill="#C2B38C"/>
<path d="M75.6693 119.292C73.6674 116.6 71.5473 113.997 69.316 111.498C67.0778 108.993 64.7214 106.598 62.2677 104.308C60.8844 103.017 59.4664 101.768 58.0136 100.553C57.8259 100.394 57.5479 100.664 57.7425 100.824C60.3075 102.975 62.7751 105.245 65.1384 107.619C67.4879 109.985 69.7331 112.463 71.8601 115.038C73.0627 116.488 74.2235 117.974 75.3426 119.487C75.4886 119.681 75.8222 119.487 75.6763 119.292H75.6693Z" fill="#C2B38C"/>
<path d="M147.669 85.9019C141.329 84.264 134.99 82.6191 128.643 80.9811C125.495 80.1691 122.353 79.3501 119.204 78.5381C116.201 77.7608 113.191 76.9418 110.112 76.5254C107.172 76.1297 104.134 76.1297 101.277 77.0112C98.8859 77.7469 96.7241 79.0725 94.8265 80.6827C92.8524 82.3553 91.1424 84.3264 89.5437 86.353C87.7434 88.6364 86.0265 90.9962 84.2887 93.3282C80.3613 98.589 76.434 103.843 72.5066 109.104C72.02 109.756 71.5335 110.409 71.0469 111.061C70.9009 111.262 71.2346 111.45 71.3805 111.255C75.2453 106.078 79.1101 100.9 82.9819 95.7226C84.8378 93.238 86.6868 90.7394 88.5566 88.2617C90.1137 86.2073 91.7263 84.1807 93.5684 82.3623C95.3478 80.6133 97.3497 79.0586 99.6436 78.0384C102.334 76.8307 105.295 76.5115 108.214 76.7127C111.273 76.9279 114.269 77.6566 117.223 78.4201C120.337 79.2182 123.444 80.0303 126.558 80.8354C132.779 82.4456 138.994 84.0557 145.215 85.6659C146 85.8672 146.786 86.0754 147.571 86.2767C147.815 86.3391 147.912 85.9644 147.675 85.9019H147.669Z" fill="#C2B38C"/>
<path d="M113.511 42.4825C113.775 44.759 113.65 47.0702 113.136 49.305C113.08 49.5479 113.455 49.652 113.511 49.4091C114.032 47.1396 114.164 44.7937 113.9 42.4825C113.872 42.2396 113.483 42.2327 113.511 42.4825Z" fill="#C2B38C"/>
<path d="M111.558 44.0094C112.044 45.807 112.531 47.6045 113.018 49.4021C113.08 49.6381 113.455 49.5409 113.393 49.298C112.906 47.5004 112.42 45.7029 111.933 43.9053C111.871 43.6693 111.495 43.7665 111.558 44.0094Z" fill="#C2B38C"/>
<path d="M116.152 48.8261C115.575 47.7086 114.936 46.619 114.13 45.6543C113.386 44.7659 112.468 43.9677 111.349 43.5999C110.022 43.1696 108.673 43.5027 107.477 44.1482C106.81 44.5091 106.185 44.9394 105.552 45.3558C104.899 45.7931 104.252 46.2303 103.606 46.6745C101.041 48.4443 98.5383 50.2974 96.0985 52.2338C93.6656 54.1633 91.2953 56.176 88.9945 58.272C86.6868 60.368 84.4555 62.5473 82.2937 64.7891C82.0295 65.0667 81.7654 65.3443 81.5013 65.615C81.3275 65.7955 81.6055 66.0661 81.7724 65.8857C83.8716 63.6647 86.0403 61.5132 88.2855 59.438C90.5307 57.3559 92.8524 55.3431 95.2296 53.4137C97.6069 51.4842 100.047 49.6381 102.549 47.8752C103.8 46.9938 105.058 46.1332 106.337 45.2934C107.526 44.5091 108.833 43.6901 110.313 43.7873C111.46 43.8636 112.461 44.4883 113.261 45.2795C114.13 46.1401 114.804 47.1812 115.395 48.25C115.534 48.5068 115.673 48.7636 115.812 49.0204C115.923 49.2425 116.257 49.0481 116.145 48.8261H116.152Z" fill="#C2B38C"/>
<path d="M193.295 81.6961C194.053 79.7597 194.88 77.8441 195.77 75.9633C196.667 74.0685 197.626 72.2016 198.648 70.3762C199.225 69.3421 199.822 68.3219 200.434 67.3085C200.691 66.8852 200.024 66.4965 199.767 66.9199C198.669 68.7244 197.626 70.5706 196.653 72.4514C195.68 74.3184 194.776 76.2201 193.935 78.1495C193.455 79.2531 192.99 80.3705 192.552 81.4948C192.475 81.6892 192.635 81.9182 192.823 81.9668C193.038 82.0292 193.219 81.8904 193.295 81.6961Z" fill="#22564D"/>
<path d="M197.779 66.6422C197.529 67.8914 197.278 69.1407 197.021 70.39C196.979 70.5913 197.077 70.8064 197.292 70.8619C197.48 70.9175 197.723 70.7995 197.765 70.5913C198.015 69.342 198.265 68.0927 198.523 66.8434C198.564 66.6422 198.467 66.427 198.252 66.3715C198.064 66.316 197.821 66.4339 197.779 66.6422Z" fill="#22564D"/>
<path d="M204.834 63.6162C207.218 62.1795 209.943 61.3258 212.724 61.1593C213.509 61.1107 214.294 61.1176 215.08 61.1801C215.288 61.194 215.469 60.9927 215.469 60.7914C215.469 60.5693 215.288 60.4236 215.08 60.4027C212.181 60.1876 209.255 60.6942 206.593 61.8394C205.849 62.1587 205.133 62.5265 204.445 62.943C204.021 63.1998 204.41 63.866 204.834 63.6092V63.6162Z" fill="#22564D"/>
<path d="M196.138 56.4397C196.479 57.925 197.396 59.2298 198.655 60.0835C198.828 60.2015 199.086 60.1182 199.183 59.9447C199.294 59.7573 199.218 59.5352 199.044 59.4172C197.946 58.6746 197.174 57.5155 196.882 56.2315C196.833 56.0303 196.604 55.9053 196.409 55.9609C196.201 56.0164 196.09 56.2315 196.138 56.4328V56.4397Z" fill="#22564D"/>
<path d="M182.09 64.3727C183.022 66.5451 183.946 68.7105 184.878 70.8828C185.142 71.5005 185.406 72.1183 185.67 72.736C185.753 72.9303 186.031 72.9719 186.198 72.8748C186.4 72.7568 186.421 72.5416 186.337 72.3473C185.406 70.1749 184.481 68.0095 183.55 65.8371C183.286 65.2194 183.022 64.6017 182.757 63.984C182.674 63.7897 182.396 63.7481 182.229 63.8452C182.028 63.9632 182.007 64.1784 182.09 64.3727Z" fill="#22564D"/>
<path d="M179.463 65.6774C180.033 66.774 180.603 67.8706 181.173 68.9741C181.27 69.1615 181.527 69.2171 181.701 69.1129C181.889 69.0019 181.937 68.7729 181.84 68.5855C181.27 67.4889 180.7 66.3923 180.13 65.2888C180.033 65.1014 179.776 65.0458 179.602 65.15C179.414 65.261 179.365 65.49 179.463 65.6774Z" fill="#22564D"/>
<path d="M198.564 77.3166C198.286 77.7331 198.008 78.1495 197.73 78.559C197.619 78.7256 197.688 78.9962 197.869 79.0865C198.064 79.1906 198.279 79.1281 198.397 78.9477C198.675 78.5312 198.953 78.1148 199.232 77.7053C199.343 77.5387 199.273 77.2681 199.092 77.1778C198.898 77.0737 198.682 77.1362 198.564 77.3166Z" fill="#22564D"/>
<path d="M201.873 77.8371C201.602 78.5312 201.324 79.2252 201.053 79.9123C200.976 80.0997 201.136 80.3426 201.324 80.3843C201.546 80.4328 201.72 80.3149 201.797 80.1136C202.068 79.4195 202.346 78.7255 202.617 78.0384C202.693 77.851 202.533 77.6081 202.346 77.5664C202.123 77.5179 201.949 77.6358 201.873 77.8371Z" fill="#22564D"/>
<path d="M193.865 82.5844C196.493 83.098 199.141 83.4798 201.803 83.7366C204.452 83.9864 207.114 84.1044 209.776 84.0905C211.278 84.0836 212.779 84.0281 214.281 83.9378C214.489 83.924 214.67 83.7713 214.67 83.5492C214.67 83.3479 214.496 83.1536 214.281 83.1605C211.632 83.3271 208.984 83.3548 206.329 83.2577C203.701 83.1605 201.081 82.9315 198.481 82.5706C197 82.3693 195.527 82.1194 194.067 81.8349C193.865 81.7932 193.65 81.8904 193.594 82.1056C193.546 82.2929 193.657 82.5428 193.865 82.5775V82.5844Z" fill="#22564D"/>
<path d="M156.524 80.0025C156.74 82.3206 156.656 84.6665 156.253 86.9638C156.218 87.172 156.309 87.3802 156.524 87.4358C156.712 87.4843 156.962 87.3733 156.997 87.1651C157.407 84.7984 157.518 82.3901 157.296 79.9956C157.275 79.7874 157.129 79.6069 156.906 79.6069C156.712 79.6069 156.503 79.7804 156.517 79.9956L156.524 80.0025Z" fill="#22564D"/>
<path d="M133.217 94.4387C136.192 94.1333 139.167 94.8135 142.101 95.2091C145.034 95.6047 147.988 95.9031 150.942 96.0905C153.897 96.2779 156.858 96.3612 159.819 96.3334C162.78 96.3057 165.741 96.1738 168.688 95.9378C171.643 95.7018 174.583 95.3548 177.516 94.9037C177.878 94.8482 178.246 94.7926 178.608 94.7302C178.851 94.6885 178.747 94.3207 178.503 94.3554C175.57 94.8343 172.616 95.2021 169.662 95.4659C166.728 95.7227 163.788 95.8823 160.841 95.9309C157.88 95.9795 154.918 95.9239 151.964 95.7643C149.024 95.6047 146.091 95.334 143.164 94.9661C141.67 94.7788 140.189 94.5428 138.702 94.3276C137.256 94.1194 135.796 93.9459 134.329 93.9875C133.961 93.9945 133.593 94.0222 133.224 94.057C132.981 94.0847 132.974 94.4664 133.224 94.4456L133.217 94.4387Z" fill="#BF8F30"/>
<path d="M133.968 102.809C137.749 104.135 141.607 105.238 145.521 106.113C149.406 106.98 153.348 107.619 157.31 108.028C159.534 108.257 161.772 108.41 164.004 108.493C164.254 108.5 164.254 108.118 164.004 108.104C160.014 107.959 156.038 107.577 152.096 106.966C148.176 106.355 144.29 105.516 140.474 104.454C138.319 103.857 136.185 103.184 134.072 102.441C133.836 102.358 133.739 102.733 133.968 102.816V102.809Z" fill="#BF8F30"/>
<path d="M144.832 103.892C148.482 104.482 152.173 104.773 155.864 104.738C156.913 104.731 157.963 104.697 159.013 104.634C159.263 104.62 159.263 104.232 159.013 104.246C155.342 104.454 151.651 104.357 148.002 103.94C146.973 103.822 145.952 103.683 144.93 103.517C144.686 103.475 144.582 103.85 144.825 103.892H144.832Z" fill="#BF8F30"/>
<path d="M102.723 96.5069C104.565 97.8117 106.442 99.0679 108.353 100.276C110.265 101.483 112.197 102.649 114.164 103.76C116.132 104.87 118.126 105.932 120.149 106.945C122.158 107.952 124.195 108.909 126.259 109.819C128.324 110.728 130.416 111.582 132.522 112.387C132.786 112.484 133.05 112.588 133.315 112.685C133.551 112.775 133.648 112.401 133.419 112.31C131.306 111.519 129.22 110.679 127.149 109.784C125.084 108.889 123.041 107.945 121.025 106.945C119.009 105.946 117.014 104.905 115.054 103.808C113.087 102.712 111.155 101.567 109.243 100.373C107.338 99.179 105.462 97.9366 103.613 96.6527C103.383 96.493 103.147 96.3265 102.918 96.1668C102.716 96.0211 102.521 96.3542 102.723 96.5V96.5069Z" fill="#BF8F30"/>
<path d="M109.924 95.4728C112.851 97.0691 115.784 98.6654 118.71 100.262C119.538 100.713 120.365 101.164 121.185 101.608C121.4 101.726 121.595 101.393 121.38 101.275C118.453 99.6787 115.52 98.0824 112.593 96.4861C111.766 96.035 110.939 95.5838 110.119 95.1397C109.903 95.0217 109.709 95.3548 109.924 95.4728Z" fill="#BF8F30"/>
<path opacity="0.1" d="M253.714 158.409C253.714 164.614 211.187 169.645 158.735 169.638C106.282 169.638 63.7552 164.607 63.7552 158.395C63.7552 152.19 106.282 147.158 158.735 147.165C211.187 147.165 253.714 152.197 253.714 158.409Z" fill="#BF8F30"/>
<path d="M274.79 7.81495C274.47 11.1117 274.255 14.4153 274.15 17.719C274.053 20.7728 273.921 23.9029 274.581 26.9081C274.741 27.6369 274.95 28.3517 275.221 29.0388C275.478 29.6982 275.763 30.4825 276.562 30.6282C277.271 30.7601 277.834 30.2534 278.189 29.6912C278.55 29.1083 278.807 28.442 279.016 27.7896C279.885 25.0412 279.586 22.0776 279.016 19.3014C278.724 17.8508 278.342 16.4211 277.966 14.9914C277.549 13.3881 277.125 11.7849 276.708 10.1886C276.604 9.79992 276.507 9.41126 276.402 9.01565C276.152 9.08505 275.909 9.15446 275.659 9.22386C276.43 11.2644 277.243 13.3118 278.39 15.1718C278.96 16.0949 279.614 16.9833 280.364 17.7676C280.74 18.1632 281.143 18.5241 281.574 18.8641C281.977 19.1834 282.401 19.5304 282.874 19.7317C283.652 20.0579 284.563 19.8497 285.147 19.2528C285.745 18.6421 285.918 17.7467 285.578 16.9625C285.376 16.5044 285.029 16.0949 284.737 15.6993C284.417 15.2551 284.083 14.8179 283.743 14.3806C283.075 13.52 282.373 12.6871 281.643 11.8751C280.198 10.2719 278.627 8.77273 276.965 7.39158C276.757 7.21807 276.541 7.04456 276.333 6.87799C276.173 6.74612 275.944 6.71836 275.784 6.87799C275.652 7.00986 275.617 7.29442 275.784 7.42629C277.403 8.71721 278.926 10.1192 280.351 11.6183C281.762 13.1105 283.075 14.6929 284.271 16.3656C284.417 16.5738 284.563 16.782 284.709 16.9902C284.827 17.1637 284.89 17.2887 284.938 17.4552C284.952 17.4969 284.959 17.5455 284.973 17.5871C284.973 17.6079 284.98 17.6287 284.98 17.6426C284.98 17.6218 284.98 17.5802 284.98 17.6565C284.98 17.7467 284.98 17.83 284.98 17.9202C284.98 17.9897 284.987 17.8925 284.98 17.9619C284.973 18.0035 284.966 18.0452 284.952 18.0868C284.938 18.1285 284.931 18.1701 284.917 18.2117C284.917 18.2256 284.904 18.2464 284.897 18.2603C284.876 18.3159 284.917 18.2117 284.897 18.2673C284.862 18.3436 284.82 18.42 284.771 18.4894C284.751 18.5171 284.73 18.5518 284.709 18.5796C284.688 18.6004 284.667 18.6282 284.646 18.649C284.514 18.7947 284.466 18.8364 284.32 18.9266C284.285 18.9474 284.243 18.9683 284.208 18.9891C284.195 18.996 284.09 19.0446 284.153 19.0168C284.076 19.0515 283.993 19.0724 283.91 19.0932C283.875 19.1001 283.84 19.1071 283.798 19.114C283.868 19.1001 283.757 19.114 283.736 19.114C283.694 19.114 283.645 19.114 283.604 19.114C283.576 19.114 283.486 19.1071 283.499 19.114C283.36 19.1001 283.173 19.0377 283.041 18.9613C282.832 18.8503 282.637 18.7045 282.443 18.5657C282.033 18.2742 281.65 17.948 281.289 17.601C280.552 16.9 279.913 16.1088 279.357 15.2551C278.224 13.5408 277.41 11.6391 276.673 9.73052C276.583 9.49454 276.493 9.25857 276.402 9.01565C276.326 8.82132 276.145 8.68945 275.93 8.74497C275.728 8.8005 275.61 9.01565 275.659 9.21692C276.062 10.7577 276.465 12.2985 276.868 13.8393C277.25 15.2898 277.64 16.7334 277.98 18.1909C278.599 20.8144 279.079 23.6045 278.585 26.2904C278.467 26.9359 278.293 27.5744 278.05 28.1921C277.932 28.4975 277.793 28.7959 277.64 29.0874C277.508 29.3373 277.369 29.5594 277.153 29.7398C276.993 29.8717 276.812 29.9342 276.604 29.8439C276.347 29.7329 276.243 29.49 276.131 29.2471C275.846 28.6085 275.631 27.9353 275.45 27.2552C274.72 24.4304 274.811 21.4668 274.887 18.5796C274.97 15.38 275.158 12.1805 275.443 8.98789C275.478 8.59228 275.513 8.20362 275.554 7.81495C275.575 7.60674 275.36 7.42629 275.165 7.42629C274.943 7.42629 274.797 7.60674 274.776 7.81495H274.79Z" fill="#BF8F30"/>
<path d="M275.339 8.37021C276.416 11.2574 277.396 14.1863 278.286 17.136C279.176 20.0857 279.968 23.0701 280.663 26.0753C281.358 29.0805 281.963 32.1065 282.464 35.1465C282.971 38.2003 283.374 41.2679 283.68 44.3426C283.986 47.4102 284.188 50.4918 284.299 53.5734C284.313 53.9551 284.327 54.3299 284.334 54.7116C284.347 55.2044 285.119 55.2113 285.105 54.7116C285.022 51.6162 284.841 48.5207 284.556 45.4322C284.271 42.3437 283.889 39.2622 283.409 36.1945C282.929 33.1337 282.352 30.0869 281.678 27.0678C281.004 24.0417 280.232 21.0435 279.364 18.066C278.495 15.0886 277.535 12.1458 276.472 9.23083C276.34 8.87686 276.208 8.51596 276.076 8.162C276.006 7.96766 275.812 7.83579 275.603 7.89132C275.415 7.9399 275.262 8.16894 275.332 8.36327L275.339 8.37021Z" fill="#BF8F30"/>
<path d="M277.118 15.0608C278.425 17.3997 279.649 19.7872 280.775 22.2164C281.894 24.6386 282.922 27.1024 283.861 29.601C284.799 32.1134 285.64 34.6536 286.391 37.2286C287.135 39.8035 287.788 42.3992 288.337 45.0227C288.886 47.6323 289.338 50.2627 289.679 52.907C289.721 53.2332 289.762 53.5594 289.804 53.8856C289.832 54.0938 289.964 54.2743 290.193 54.2743C290.381 54.2743 290.603 54.0938 290.583 53.8856C290.256 51.1927 289.832 48.5137 289.304 45.8486C288.775 43.2112 288.15 40.5947 287.427 37.9989C286.704 35.4102 285.877 32.8422 284.959 30.3159C284.035 27.7687 283.013 25.2563 281.894 22.7785C280.782 20.3147 279.579 17.8925 278.279 15.5258C278.119 15.2343 277.959 14.9497 277.8 14.6651C277.556 14.2348 276.889 14.6235 277.132 15.0538L277.118 15.0608Z" fill="#BF8F30"/>
<path d="M268.603 87.5676C267.227 77.8996 266.024 67.357 271.057 58.9869C273.358 55.1696 276.812 52.1158 278.905 48.1806C280.983 44.2731 281.581 39.7757 282.575 35.4657C283.666 30.7323 285.279 26.1238 287.371 21.7375C290.457 15.2828 295.073 8.96009 301.871 6.72527C302.67 6.46153 303.546 6.2672 304.339 6.53787C306.438 7.26662 306.209 10.2927 305.437 12.3748C300.919 24.4928 291.618 34.8966 289.839 47.7086C289.297 51.63 289.443 55.8081 287.524 59.2784C284.744 64.2894 278.342 66.5034 275.672 71.5699C274.185 74.4016 274.074 77.7191 273.497 80.8632C272.76 84.8609 271.217 88.6989 268.979 92.0928C264.467 90.1634 259.588 87.8869 257.468 83.4658C255.904 80.1969 256.182 76.3866 256.342 72.7636C256.661 65.5803 256.376 58.3067 254.611 51.3385C253.492 46.9313 251.789 42.6699 250.906 38.2071C248.793 27.4425 251.629 16.3933 254.444 5.79525C255.083 3.38691 256.147 0.555206 258.594 0.0693746C261.416 -0.492802 263.612 2.54017 264.433 5.29553C268.714 19.5859 258.204 34.4593 259.643 49.3049C260.109 54.1285 261.84 58.7717 262.132 63.6092C262.5 69.689 260.658 76.2131 263.425 81.6405C264.738 84.2223 267.011 86.3045 267.859 89.0737C268.701 91.8429 266.921 95.7157 264.057 95.2715C263.035 95.1119 262.18 94.4387 261.381 93.7932C255.792 89.2889 250.12 84.6943 246.117 78.7463C243.135 74.3114 241.133 69.1963 237.567 65.2055C234.724 62.0268 231.033 59.7364 227.926 56.8214C224.818 53.9064 222.177 49.9781 222.483 45.7237C222.789 41.4761 227.244 37.5131 231.227 39.04C233.778 40.0117 235.217 42.7254 235.954 45.3489C236.691 47.9724 236.969 50.7694 238.248 53.1708C240.597 57.5849 245.894 59.9308 247.972 64.4837C249.133 67.0239 249.147 69.9805 250.412 72.4722C251.907 75.4288 254.903 77.268 257.273 79.5861C261.784 84.0002 264.092 90.559 263.341 96.8193L268.596 87.5676H268.603Z" fill="#C2B38C"/>
<path d="M293.947 20.7519C291.013 23.9584 289.686 28.1365 288.879 32.3147C288.038 36.6733 287.698 41.136 286.481 45.4252C285.897 47.5004 285.091 49.5131 283.93 51.3384C282.457 53.6496 280.42 55.5166 278.654 57.5918C275.429 61.3743 273.031 65.8301 271.571 70.5774C270.112 75.3385 269.597 80.412 270.16 85.3605C270.23 85.9574 270.313 86.5543 270.41 87.1512C270.487 87.637 271.231 87.4357 271.154 86.9429C270.362 82.0707 270.647 77.0389 271.891 72.2639C273.128 67.5236 275.311 63.0123 278.349 59.1603C280.017 57.0504 281.998 55.2112 283.638 53.0805C285.008 51.3037 286.009 49.2979 286.739 47.1811C288.163 43.0515 288.581 38.6652 289.29 34.3829C289.978 30.2256 290.944 25.9433 293.495 22.4939C293.801 22.0775 294.134 21.6819 294.489 21.3002C294.823 20.9323 294.28 20.391 293.94 20.7519H293.947Z" fill="#56472A"/>
<path d="M255.264 22.5217C254.034 26.4847 254.034 30.649 254.597 34.723C255.181 38.9428 256.314 43.0585 257.273 47.195C257.76 49.2841 258.204 51.387 258.517 53.5108C258.844 55.7456 258.983 57.9943 258.962 60.25C258.913 64.8723 258.316 69.4738 258.441 74.0962C258.545 78.1286 259.192 82.2512 261.103 85.8533C261.339 86.3044 261.597 86.7417 261.875 87.165C262.146 87.5815 262.813 87.1928 262.542 86.7764C260.345 83.3617 259.483 79.3154 259.268 75.3038C259.018 70.7856 259.567 66.2812 259.713 61.7699C259.789 59.5073 259.748 57.2378 259.497 54.9891C259.261 52.8862 258.872 50.804 258.427 48.7427C257.53 44.6062 256.369 40.5252 255.639 36.354C254.944 32.3632 254.673 28.2198 255.605 24.2429C255.723 23.7363 255.862 23.2296 256.022 22.7299C256.168 22.2579 255.424 22.0497 255.278 22.5217H255.264Z" fill="#56472A"/>
<path d="M229.483 48.1459C229.51 51.7202 231.839 54.7601 234.411 57.0297C237.171 59.4658 240.389 61.4091 242.641 64.3865C244.719 67.135 246.033 70.3553 247.389 73.4994C248.758 76.685 250.225 79.8221 252.463 82.5081C254.659 85.1454 257.44 87.3039 260.54 88.7822C260.936 88.9696 261.332 89.1431 261.736 89.3097C261.93 89.386 262.16 89.2264 262.208 89.039C262.271 88.8169 262.132 88.6434 261.937 88.5671C258.823 87.2761 256.008 85.2773 253.735 82.7996C252.595 81.5572 251.608 80.1899 250.76 78.7255C249.905 77.2472 249.182 75.6995 248.501 74.1379C247.138 71.0355 245.915 67.8359 244.017 65.0042C243.03 63.5259 241.863 62.2072 240.535 61.0274C239.152 59.7989 237.65 58.7093 236.211 57.5433C233.598 55.4264 230.942 52.796 230.358 49.3396C230.289 48.951 230.261 48.5484 230.261 48.1528C230.261 47.6601 229.483 47.6531 229.49 48.1528L229.483 48.1459Z" fill="#56472A"/>
<path d="M255.918 78.8713C258.191 81.703 259.914 84.972 260.978 88.4352C261.284 89.4208 261.534 90.4202 261.729 91.4266C261.77 91.6278 262.014 91.7458 262.201 91.6972C262.417 91.6417 262.514 91.4266 262.472 91.2253C262.118 89.4 261.59 87.6163 260.895 85.895C260.192 84.1599 259.338 82.4873 258.33 80.9118C257.753 80.0165 257.134 79.1559 256.467 78.3299C256.335 78.1703 256.057 78.1911 255.918 78.3299C255.758 78.4896 255.786 78.7117 255.918 78.8782V78.8713Z" fill="#56472A"/>
<path d="M251.121 83.0911H273.441C276.507 83.0911 279.002 85.5757 279.002 88.6434V89.8441C279.002 92.9049 276.514 95.3965 273.441 95.3965H251.121C248.056 95.3965 245.561 92.9118 245.561 89.8441V88.6434C245.561 85.5827 248.049 83.0911 251.121 83.0911Z" fill="#FC7753"/>
<path d="M274.157 94.515H250.399L254.799 115.593H269.757L274.157 94.515Z" fill="#FC7753"/>
<path d="M252.943 95.459C255.48 95.459 258.024 95.459 260.561 95.459C263.098 95.459 265.642 95.459 268.179 95.459C269.618 95.459 271.05 95.459 272.489 95.459C272.983 95.459 272.989 94.6886 272.489 94.6886C269.952 94.6886 267.408 94.6886 264.871 94.6886C262.333 94.6886 259.789 94.6886 257.252 94.6886C255.813 94.6886 254.381 94.6886 252.943 94.6886C252.449 94.6886 252.442 95.459 252.943 95.459Z" fill="#5B1E36"/>
<path d="M244.427 112.893H282.818C281.428 115.086 277.466 116.572 273.003 116.572H254.263C250.03 116.572 246.221 115.232 244.664 113.199L244.427 112.893Z" fill="#5B1E36"/>
<path d="M246.714 180.972L246.123 180.861C245.185 180.688 244.559 179.785 244.74 178.842L249.397 122.804L253.394 123.547L248.737 179.584C248.563 180.521 247.66 181.146 246.714 180.965V180.972Z" fill="#CE7D1D"/>
<path d="M280.198 180.972L280.789 180.861C281.727 180.688 282.353 179.785 282.172 178.842L277.522 122.804L273.525 123.547L278.175 179.584C278.349 180.521 279.252 181.146 280.198 180.965V180.972Z" fill="#CE7D1D"/>
<path d="M278.648 133.625H248.834V136.331H278.648V133.625Z" fill="#CE7D1D"/>
<path d="M282.415 116.606H244.504C242.719 116.606 241.272 118.051 241.272 119.834V120.528C241.272 122.31 242.719 123.755 244.504 123.755H282.415C284.2 123.755 285.647 122.31 285.647 120.528V119.834C285.647 118.051 284.2 116.606 282.415 116.606Z" fill="#BF8F30"/>
</g>
<defs>
<clipPath id="clip0_477_248">
<rect width="306" height="181" fill="white"/>
</clipPath>
</defs>
</svg>
