<svg width="32" height="32" viewBox="0 0 32 32" fill="none" xmlns="http://www.w3.org/2000/svg">
<path d="M16 2.66669C8.65329 2.66669 2.66663 8.65335 2.66663 16C2.66663 23.3467 8.65329 29.3334 16 29.3334C23.3466 29.3334 29.3333 23.3467 29.3333 16C29.3333 8.65335 23.3466 2.66669 16 2.66669ZM21.3333 17H17V21.3334C17 21.88 16.5466 22.3334 16 22.3334C15.4533 22.3334 15 21.88 15 21.3334V17H10.6666C10.12 17 9.66663 16.5467 9.66663 16C9.66663 15.4534 10.12 15 10.6666 15H15V10.6667C15 10.12 15.4533 9.66669 16 9.66669C16.5466 9.66669 17 10.12 17 10.6667V15H21.3333C21.88 15 22.3333 15.4534 22.3333 16C22.3333 16.5467 21.88 17 21.3333 17Z" fill="#FAFAFA"/>
</svg>
