<svg width="16" height="16" viewBox="0 0 16 16" fill="none" xmlns="http://www.w3.org/2000/svg">
<path d="M14.0113 5.32783C14.2766 5.70555 13.9604 6.16666 13.4988 6.16666H2.00004C1.63185 6.16666 1.33337 5.86818 1.33337 5.5V4.27999C1.33337 2.65333 2.65337 1.33333 4.28004 1.33333H5.82671C6.91337 1.33333 7.25337 1.68666 7.68671 2.26666L8.62004 3.50666C8.82671 3.78 8.85337 3.81333 9.24004 3.81333H11.1C12.3031 3.81333 13.3678 4.41139 14.0113 5.32783Z" fill="#094D92"/>
<path d="M13.989 7.16667C14.3562 7.16667 14.6544 7.46381 14.6556 7.83107L14.6667 11.1002C14.6667 13.0669 13.0667 14.6669 11.1 14.6669H4.90004C2.93337 14.6669 1.33337 13.0669 1.33337 11.1002V7.83354C1.33337 7.46534 1.63185 7.16687 2.00003 7.16687L13.989 7.16667Z" fill="#094D92"/>
</svg>
