<svg width="20" height="20" viewBox="0 0 20 20" fill="none" xmlns="http://www.w3.org/2000/svg">
<path d="M13.4917 1.66667H6.50841C3.47508 1.66667 1.66675 3.475 1.66675 6.50834V13.4833C1.66675 16.525 3.47508 18.3333 6.50841 18.3333H13.4834C16.5167 18.3333 18.3251 16.525 18.3251 13.4917V6.50834C18.3334 3.475 16.5251 1.66667 13.4917 1.66667ZM13.1251 13.125H6.87508C6.53341 13.125 6.25008 12.8417 6.25008 12.5C6.25008 12.1583 6.53341 11.875 6.87508 11.875H13.1251C13.4667 11.875 13.7501 12.1583 13.7501 12.5C13.7501 12.8417 13.4667 13.125 13.1251 13.125ZM13.1251 8.125H6.87508C6.53341 8.125 6.25008 7.84167 6.25008 7.5C6.25008 7.15834 6.53341 6.875 6.87508 6.875H13.1251C13.4667 6.875 13.7501 7.15834 13.7501 7.5C13.7501 7.84167 13.4667 8.125 13.1251 8.125Z" fill="#CA33C4"/>
</svg>
