<svg width="20" height="20" viewBox="0 0 20 20" fill="none" xmlns="http://www.w3.org/2000/svg">
<path d="M15.017 10.275L14.0003 9.25833C13.7587 9.05 13.617 8.74166 13.6087 8.4C13.592 8.025 13.742 7.65 14.017 7.375L15.017 6.375C15.8837 5.50833 16.2087 4.675 15.9337 4.01666C15.667 3.36666 14.842 3.00833 13.6253 3.00833H4.91699V2.29166C4.91699 1.95 4.63366 1.66666 4.29199 1.66666C3.95033 1.66666 3.66699 1.95 3.66699 2.29166V17.7083C3.66699 18.05 3.95033 18.3333 4.29199 18.3333C4.63366 18.3333 4.91699 18.05 4.91699 17.7083V13.6417H13.6253C14.8253 13.6417 15.6337 13.275 15.9087 12.6167C16.1837 11.9583 15.867 11.1333 15.017 10.275Z" fill="#FF8800"/>
</svg>
