<svg width="24" height="24" viewBox="0 0 24 24" fill="none" xmlns="http://www.w3.org/2000/svg">
<g clip-path="url(#clip0_575_200)">
<path d="M12 24C18.6274 24 24 18.6274 24 12C24 5.37258 18.6274 0 12 0C5.37258 0 0 5.37258 0 12C0 18.6274 5.37258 24 12 24Z" fill="#2B98F0"/>
<path fill-rule="evenodd" clip-rule="evenodd" d="M4.96263 2.2793L12.0001 9.31676L19.0376 2.2793C20.0679 3.02665 20.9735 3.93228 21.7209 4.96263L14.6834 12.0001L21.7209 19.0376C20.9735 20.0679 20.0679 20.9735 19.0376 21.7209L12.0001 14.6834L4.96263 21.7209C3.93228 20.9735 3.02665 20.0679 2.2793 19.0376L9.31676 12.0001L2.2793 4.96263C3.02665 3.93228 3.93228 3.02665 4.96263 2.2793Z" fill="white"/>
<path fill-rule="evenodd" clip-rule="evenodd" d="M21.4848 19.352L15.3228 13.0667H13.24L20.5133 20.4571C20.8593 20.1088 21.1836 19.7398 21.4846 19.352H21.4848ZM4.63077 21.4714L12.8 13.2H10.6666L3.4929 20.4635C3.85063 20.8231 4.23067 21.1596 4.63077 21.4714ZM20.4993 3.52884L13.6666 10.4167H11.7333L19.4753 2.6123C19.8338 2.89812 20.1757 3.20413 20.4993 3.52884ZM2.52637 4.63364L7.87223 10H9.96957L3.5093 3.52004C3.1591 3.8707 2.83084 4.24261 2.52637 4.63364Z" fill="#F1453D"/>
<path fill-rule="evenodd" clip-rule="evenodd" d="M9.33333 0.297333V9.33333H0.297333C0.102667 10.1909 0 11.0835 0 12C0 12.9165 0.102667 13.8091 0.297333 14.6667H9.33333V23.7027C10.1909 23.8973 11.0835 24 12 24C12.9165 24 13.8091 23.8973 14.6667 23.7027V14.6667H23.7027C23.8973 13.8091 24 12.9165 24 12C24 11.0835 23.8973 10.1909 23.7027 9.33333H14.6667V0.297333C13.8091 0.102667 12.9165 0 12 0C11.0835 0 10.1909 0.102667 9.33333 0.297333Z" fill="white"/>
<path fill-rule="evenodd" clip-rule="evenodd" d="M10 0.165867V10H0.165867C0.0568 10.6504 0 11.3187 0 12C0 12.6813 0.0568 13.3496 0.165867 14H10V23.8341C10.6504 23.9432 11.3187 24 12 24C12.6813 24 13.3496 23.9432 14 23.8341V14H23.8341C23.9432 13.3496 24 12.6813 24 12C24 11.3187 23.9432 10.6504 23.8341 10H14V0.165867C13.3496 0.0568 12.6813 0 12 0C11.3187 0 10.6504 0.0568 10 0.165867Z" fill="#F1453D"/>
</g>
<defs>
<clipPath id="clip0_575_200">
<rect width="24" height="24" fill="white"/>
</clipPath>
</defs>
</svg>
