<svg width="24" height="24" viewBox="0 0 24 24" fill="none" xmlns="http://www.w3.org/2000/svg">
<g clip-path="url(#clip0_575_187)">
<path fill-rule="evenodd" clip-rule="evenodd" d="M23.3165 16H0.682861C2.33019 20.6608 6.77486 24 11.9997 24C17.2245 24 21.6693 20.6608 23.3165 16Z" fill="#F1453D"/>
<path fill-rule="evenodd" clip-rule="evenodd" d="M0.6828 16H23.3164C23.7587 14.7489 23.9992 13.4027 23.9992 12C23.9992 10.5973 23.7587 9.25107 23.3165 8H0.682667C0.240667 9.25107 0 10.5973 0 12C0 13.4027 0.240667 14.7489 0.6828 16Z" fill="white"/>
<path fill-rule="evenodd" clip-rule="evenodd" d="M23.3165 8C21.6694 3.3392 17.2245 0 11.9997 0C6.77499 0 2.33019 3.3392 0.682861 8H23.3165Z" fill="#4EAB53"/>
<path fill-rule="evenodd" clip-rule="evenodd" d="M2.13334 16.2668V16.5334H1.46667V16.9334H1.86667V16.8001H1.6V16.6668H2.13334V16.9334H2.8V16.2668H2.66667V16.8001H2.53334V16.2668H2.4V16.8001H2.26667V16.2668H2.13334ZM0.854004 16.2534L0.911071 16.3868H2V16.2534H0.854004ZM2.93334 16.5334V16.9334H3.06667V16.6668H3.46667V16.9334H4.13334V16.5334H3.736V16.6668H4V16.8001H3.6V16.5334H2.93334ZM4.93334 16.2668V16.5334H4.26667V16.9334H4.66667V16.8001H4.4V16.6668H4.93334V16.9334H5.6V16.2668H5.46667V16.8001H5.33334V16.2668H5.2V16.8001H5.06667V16.2668H4.93334ZM2.93334 16.2534V16.3868H4.8V16.2534H2.93334ZM5.73334 16.5334V16.9334H5.86667V16.6668H6.26667V16.9334H6.93334V16.5334H6.536V16.6668H6.8V16.8001H6.4V16.5334H5.73334ZM7.73334 16.2668V16.5334H7.06667V16.9334H7.46667V16.8001H7.2V16.6668H7.73334V16.9334H8.4V16.2668H8.26667V16.8001H8.13334V16.2668H8V16.8001H7.86667V16.2668H7.73334ZM5.73334 16.2534V16.3868H7.6V16.2534H5.73334ZM8.53334 16.5334V16.9334H8.66667V16.6668H9.06667V16.9334H9.73334V16.5334H9.336V16.6668H9.6V16.8001H9.2V16.5334H8.53334ZM10.5333 16.2668V16.5334H9.86667V16.9334H10.2667V16.8001H10V16.6668H10.5333V16.9334H11.2V16.2668H11.0667V16.8001H10.9333V16.2668H10.8V16.8001H10.6667V16.2668H10.5333ZM8.53334 16.2534V16.3868H10.4V16.2534H8.53334ZM11.3333 16.5334V16.9334H11.4667V16.6668H11.8667V16.9334H12.5333V16.5334H12.136V16.6668H12.4V16.8001H12V16.5334H11.3333ZM13.3333 16.2668V16.5334H12.6667V16.9334H13.0667V16.8001H12.8V16.6668H13.3333V16.9334H14V16.2668H13.8667V16.8001H13.7333V16.2668H13.6V16.8001H13.4667V16.2668H13.3333ZM11.3333 16.2534V16.3868H13.2V16.2534H11.3333ZM14.1333 16.5334V16.9334H14.2667V16.6668H14.6667V16.9334H15.3333V16.5334H14.936V16.6668H15.2V16.8001H14.8V16.5334H14.1333ZM16.1333 16.2668V16.5334H15.4667V16.9334H15.8667V16.8001H15.6V16.6668H16.1333V16.9334H16.8V16.2668H16.6667V16.8001H16.5333V16.2668H16.4V16.8001H16.2667V16.2668H16.1333ZM14.1333 16.2534V16.3868H16V16.2534H14.1333ZM16.9333 16.5334V16.9334H17.0667V16.6668H17.4667V16.9334H18.1333V16.5334H17.736V16.6668H18V16.8001H17.6V16.5334H16.9333ZM18.9333 16.2668V16.5334H18.2667V16.9334H18.6667V16.8001H18.4V16.6668H18.9333V16.9334H19.6V16.2668H19.4667V16.8001H19.3333V16.2668H19.2V16.8001H19.0667V16.2668H18.9333ZM16.9333 16.2534V16.3868H18.8V16.2534H16.9333ZM19.7333 16.5334V16.9334H19.8667V16.6668H20.2667V16.9334H20.9333V16.5334H20.536V16.6668H20.8V16.8001H20.4V16.5334H19.7333ZM21.7333 16.2668V16.5334H21.0667V16.9334H21.4667V16.8001H21.2V16.6668H21.7333V16.9334H22.4V16.2668H22.2667V16.8001H22.1333V16.2668H22V16.8001H21.8667V16.2668H21.7333ZM19.7333 16.2534V16.3868H21.6V16.2534H19.7333ZM22.5333 16.5334V16.9334H22.6667V16.6668H22.9703L23.0324 16.5334H22.5333ZM22.5333 16.2534V16.3868H23.0644L23.1231 16.2534H22.5333Z" fill="white"/>
<path fill-rule="evenodd" clip-rule="evenodd" d="M3.19991 16.8H3.33325V16.9333H3.19991V16.8ZM5.99991 16.8H6.13325V16.9333H5.99991V16.8ZM8.79991 16.8H8.93325V16.9333H8.79991V16.8ZM11.5999 16.8H11.7332V16.9333H11.5999V16.8ZM14.3999 16.8H14.5332V16.9333H14.3999V16.8ZM17.1999 16.8H17.3332V16.9333H17.1999V16.8ZM19.9999 16.8H20.1332V16.9333H19.9999V16.8ZM0.775513 16.1333L0.730713 16H1.33325V16.1333H0.775513ZM1.46658 16.1333V16H2.79991V16.1333H1.46658ZM2.93325 16.1333V16H4.13325V16.1333H2.93325ZM4.26658 16.1333V16H5.59991V16.1333H4.26658ZM5.73325 16.1333V16H6.93325V16.1333H5.73325ZM7.06658 16.1333V16H8.39991V16.1333H7.06658ZM8.53325 16.1333V16H9.73325V16.1333H8.53325ZM9.86658 16.1333V16H11.1999V16.1333H9.86658ZM11.3332 16.1333V16H12.5332V16.1333H11.3332ZM12.6666 16.1333V16H13.9999V16.1333H12.6666ZM14.1332 16.1333V16H15.3332V16.1333H14.1332ZM15.4666 16.1333V16H16.7999V16.1333H15.4666ZM16.9332 16.1333V16H18.1332V16.1333H16.9332ZM18.2666 16.1333V16H19.5999V16.1333H18.2666ZM19.7332 16.1333V16H20.9332V16.1333H19.7332ZM21.0666 16.1333V16H22.3999V16.1333H21.0666ZM22.5332 16.1333V16H23.1666L23.0964 16.1333H22.5332Z" fill="white"/>
<path fill-rule="evenodd" clip-rule="evenodd" d="M3.2002 7.6001H3.33353V7.73343H3.2002V7.6001ZM6.0002 7.6001H6.13353V7.73343H6.0002V7.6001ZM8.8002 7.6001H8.93353V7.73343H8.8002V7.6001ZM11.6002 7.6001H11.7335V7.73343H11.6002V7.6001ZM14.4002 7.6001H14.5335V7.73343H14.4002V7.6001ZM17.2002 7.6001H17.3335V7.73343H17.2002V7.6001ZM20.0002 7.6001H20.1335V7.73343H20.0002V7.6001Z" fill="white"/>
<path fill-rule="evenodd" clip-rule="evenodd" d="M0.911181 7.73322H1.33345V7.33322H1.07291L1.00945 7.46656H1.20011V7.59989H0.955047L0.911181 7.73322ZM2.13345 7.06656V7.33322H1.46678V7.73322H1.86678V7.59989H1.60011V7.46656H2.13345V7.73322H2.80011V7.06656H2.66678V7.59989H2.53345V7.06656H2.40011V7.59989H2.26678V7.06656H2.13345ZM1.19451 7.05322L1.12705 7.18656H2.00011V7.05322H1.19451ZM0.894914 7.86656L0.836914 7.99989H1.33345V7.86656H0.894914ZM1.46678 7.86656V7.99989H2.80011V7.86656H1.46678ZM2.93345 7.33322V7.73322H3.06678V7.46656H3.46678V7.73322H4.13345V7.33322H3.73611V7.46656H4.00011V7.59989H3.60011V7.33322H2.93345ZM4.93345 7.06656V7.33322H4.26678V7.73322H4.66678V7.59989H4.40011V7.46656H4.93345V7.73322H5.60011V7.06656H5.46678V7.59989H5.33345V7.06656H5.20011V7.59989H5.06678V7.06656H4.93345ZM2.93345 7.05322V7.18656H4.80011V7.05322H2.93345ZM2.93345 7.86656V7.99989H4.13345V7.86656H2.93345ZM4.26678 7.86656V7.99989H5.60011V7.86656H4.26678ZM5.73345 7.33322V7.73322H5.86678V7.46656H6.26678V7.73322H6.93345V7.33322H6.53611V7.46656H6.80011V7.59989H6.40011V7.33322H5.73345ZM7.73345 7.06656V7.33322H7.06678V7.73322H7.46678V7.59989H7.20011V7.46656H7.73345V7.73322H8.40011V7.06656H8.26678V7.59989H8.13345V7.06656H8.00011V7.59989H7.86678V7.06656H7.73345ZM5.73345 7.05322V7.18656H7.60011V7.05322H5.73345ZM5.73345 7.86656V7.99989H6.93345V7.86656H5.73345ZM7.06678 7.86656V7.99989H8.40011V7.86656H7.06678ZM8.53345 7.33322V7.73322H8.66678V7.46656H9.06678V7.73322H9.73345V7.33322H9.33611V7.46656H9.60011V7.59989H9.20011V7.33322H8.53345ZM10.5334 7.06656V7.33322H9.86678V7.73322H10.2668V7.59989H10.0001V7.46656H10.5334V7.73322H11.2001V7.06656H11.0668V7.59989H10.9334V7.06656H10.8001V7.59989H10.6668V7.06656H10.5334ZM8.53345 7.05322V7.18656H10.4001V7.05322H8.53345ZM8.53345 7.86656V7.99989H9.73345V7.86656H8.53345ZM9.86678 7.86656V7.99989H11.2001V7.86656H9.86678ZM11.3334 7.33322V7.73322H11.4668V7.46656H11.8668V7.73322H12.5334V7.33322H12.1361V7.46656H12.4001V7.59989H12.0001V7.33322H11.3334ZM13.3334 7.06656V7.33322H12.6668V7.73322H13.0668V7.59989H12.8001V7.46656H13.3334V7.73322H14.0001V7.06656H13.8668V7.59989H13.7334V7.06656H13.6001V7.59989H13.4668V7.06656H13.3334ZM11.3334 7.05322V7.18656H13.2001V7.05322H11.3334ZM11.3334 7.86656V7.99989H12.5334V7.86656H11.3334ZM12.6668 7.86656V7.99989H14.0001V7.86656H12.6668ZM14.1334 7.33322V7.73322H14.2668V7.46656H14.6668V7.73322H15.3334V7.33322H14.9361V7.46656H15.2001V7.59989H14.8001V7.33322H14.1334ZM16.1334 7.06656V7.33322H15.4668V7.73322H15.8668V7.59989H15.6001V7.46656H16.1334V7.73322H16.8001V7.06656H16.6668V7.59989H16.5334V7.06656H16.4001V7.59989H16.2668V7.06656H16.1334ZM14.1334 7.05322V7.18656H16.0001V7.05322H14.1334ZM14.1334 7.86656V7.99989H15.3334V7.86656H14.1334ZM15.4668 7.86656V7.99989H16.8001V7.86656H15.4668ZM16.9334 7.33322V7.73322H17.0668V7.46656H17.4668V7.73322H18.1334V7.33322H17.7361V7.46656H18.0001V7.59989H17.6001V7.33322H16.9334ZM18.9334 7.06656V7.33322H18.2668V7.73322H18.6668V7.59989H18.4001V7.46656H18.9334V7.73322H19.6001V7.06656H19.4668V7.59989H19.3334V7.06656H19.2001V7.59989H19.0668V7.06656H18.9334ZM16.9334 7.05322V7.18656H18.8001V7.05322H16.9334ZM16.9334 7.86656V7.99989H18.1334V7.86656H16.9334ZM18.2668 7.86656V7.99989H19.6001V7.86656H18.2668ZM19.7334 7.33322V7.73322H19.8668V7.46656H20.2668V7.73322H20.9334V7.33322H20.5361V7.46656H20.8001V7.59989H20.4001V7.33322H19.7334ZM21.7334 7.06656V7.33322H21.0668V7.73322H21.4668V7.59989H21.2001V7.46656H21.7334V7.73322H22.4001V7.06656H22.2668V7.59989H22.1334V7.06656H22.0001V7.59989H21.8668V7.06656H21.7334ZM19.7334 7.05322V7.18656H21.6001V7.05322H19.7334ZM19.7334 7.86656V7.99989H20.9334V7.86656H19.7334ZM21.0668 7.86656V7.99989H22.4001V7.86656H21.0668ZM22.5334 7.33322V7.73322H22.6668V7.46656H22.9578L22.9101 7.33322H22.5334ZM22.5334 7.05322V7.18656H22.8457L22.7817 7.05322H22.5334ZM22.5334 7.86656V7.99989H23.1542L23.0942 7.86656H22.5334Z" fill="white"/>
<path fill-rule="evenodd" clip-rule="evenodd" d="M9.06267 14.7377C6.72441 13.3403 7.46187 9.595 10.2605 9.3558C7.94254 10.7191 7.93921 12.9682 9.06267 14.7377ZM14.9373 14.7377C17.2756 13.3403 16.5381 9.595 13.7395 9.3558C16.0575 10.7191 16.0608 12.9682 14.9373 14.7377ZM12.008 8.80993C11.51 9.31153 10.6547 8.81287 10.9487 8.2666C11.4633 9.0906 12.0079 8.42487 12.0079 8.42487C12.0079 8.42487 12.5525 9.0906 13.0671 8.2666C13.3612 8.81287 12.5059 9.31153 12.008 8.80993ZM11.6504 15.3155C11.6504 15.3155 10.8293 15.5491 9.77787 15.2066C10.6197 15.2703 11.2676 15.0089 11.3029 14.9931C11.3029 14.9931 9.24454 14.0019 9.28454 11.9838C9.40494 9.94193 10.6212 9.32087 10.6212 9.32087C10.6212 9.32087 8.45587 12.139 11.6369 14.4945L11.4967 11.5807V9.4402C11.6771 9.4014 12.0079 9.06113 12.0079 9.06113C12.0079 9.06113 12.3385 9.4014 12.5191 9.4402V11.5807L12.3788 14.4945C15.5596 12.139 13.3944 9.32073 13.3944 9.32073C13.3944 9.32073 14.6107 9.94167 14.7309 11.9837C14.7711 14.0018 12.7127 14.993 12.7127 14.993C12.8999 15.0765 13.4077 15.2197 14.3167 15.2197C13.2072 15.5661 12.3652 15.3153 12.3652 15.3153L12.0076 15.7333L11.6504 15.3155Z" fill="#F1453D"/>
</g>
<defs>
<clipPath id="clip0_575_187">
<rect width="24" height="24" fill="white"/>
</clipPath>
</defs>
</svg>
