<svg width="24" height="24" viewBox="0 0 24 24" fill="none" xmlns="http://www.w3.org/2000/svg">
<path opacity="0.4" d="M16.19 1.97021H7.81C4.17 1.97021 2 4.14022 2 7.78022V16.1602C2 19.8002 4.17 21.9702 7.81 21.9702H16.19C19.83 21.9702 22 19.8002 22 16.1602V7.78022C22 4.14022 19.83 1.97021 16.19 1.97021Z" fill="#00A693"/>
<path d="M12.3101 8.84033C12.3101 9.25033 11.9801 9.59033 11.5601 9.59033H6.31006C5.90006 9.59033 5.56006 9.25033 5.56006 8.84033C5.56006 8.43033 5.90006 8.09033 6.31006 8.09033H11.5601C11.9801 8.09033 12.3101 8.43033 12.3101 8.84033Z" fill="#00A693"/>
<path d="M17.9701 7.87027L15.7201 10.1203C15.5701 10.2703 15.3801 10.3403 15.1901 10.3403C15.0001 10.3403 14.8001 10.2703 14.6601 10.1203L13.9101 9.37027C13.6101 9.08027 13.6101 8.60027 13.9101 8.31027C14.2001 8.02027 14.6701 8.02027 14.9701 8.31027L15.1901 8.53027L16.9101 6.81027C17.2001 6.52027 17.6701 6.52027 17.9701 6.81027C18.2601 7.10027 18.2601 7.58027 17.9701 7.87027Z" fill="#00A693"/>
<path d="M12.3101 15.8403C12.3101 16.2503 11.9801 16.5903 11.5601 16.5903H6.31006C5.90006 16.5903 5.56006 16.2503 5.56006 15.8403C5.56006 15.4303 5.90006 15.0903 6.31006 15.0903H11.5601C11.9801 15.0903 12.3101 15.4303 12.3101 15.8403Z" fill="#00A693"/>
<path d="M17.9701 14.8703L15.7201 17.1203C15.5701 17.2703 15.3801 17.3403 15.1901 17.3403C15.0001 17.3403 14.8001 17.2703 14.6601 17.1203L13.9101 16.3703C13.6101 16.0803 13.6101 15.6003 13.9101 15.3103C14.2001 15.0203 14.6701 15.0203 14.9701 15.3103L15.1901 15.5303L16.9101 13.8103C17.2001 13.5203 17.6701 13.5203 17.9701 13.8103C18.2601 14.1003 18.2601 14.5803 17.9701 14.8703Z" fill="#00A693"/>
</svg>
