<svg width="231" height="240" viewBox="0 0 231 240" fill="none" xmlns="http://www.w3.org/2000/svg">
<g clip-path="url(#clip0_502_336)">
<path d="M118.723 187.073V214.522C118.723 216.05 117.482 217.291 115.954 217.291C114.426 217.291 113.186 216.05 113.186 214.522V187.073C113.186 184.135 112.041 181.373 109.967 179.299C107.892 177.224 105.131 176.08 102.193 176.08C99.2543 176.08 96.4932 177.224 94.4186 179.299C92.344 181.373 91.1997 184.135 91.1997 187.073C91.1997 190.011 92.344 192.765 94.4186 194.847C96.4932 196.922 99.2543 198.066 102.193 198.066H107.124C108.653 198.066 109.893 199.306 109.893 200.834C109.893 202.363 108.653 203.603 107.124 203.603H102.193C97.7778 203.603 93.6213 201.883 90.4983 198.76C87.3754 195.637 85.6626 191.488 85.6626 187.073C85.6626 182.658 87.3754 178.501 90.4983 175.379C93.6213 172.256 97.7778 170.535 102.193 170.535C106.608 170.535 110.757 172.256 113.88 175.379C117.003 178.501 118.723 182.658 118.723 187.073Z" fill="#28293D"/>
<path d="M79.8744 173.311V187.073C79.8744 191.488 78.1542 195.637 75.0313 198.76C71.997 201.794 67.9881 203.507 63.7135 203.596H57.5341C57.4529 203.596 57.3717 203.603 57.2831 203.603C55.7548 203.603 54.5145 202.363 54.5145 200.834V187.073C54.5145 184.135 53.3702 181.373 51.2956 179.299C49.2211 177.224 46.4599 176.08 43.5215 176.08C40.5832 176.08 37.8294 177.224 35.7475 179.299C33.6729 181.373 32.5286 184.135 32.5286 187.073C32.5286 190.011 33.6729 192.765 35.7475 194.847C37.8294 196.922 40.5832 198.066 43.5215 198.066C44.2451 198.066 44.9464 197.999 45.6109 197.874C46.3049 197.741 46.9767 197.542 47.6116 197.283C48.2982 197.01 49.0439 197.018 49.7231 197.313C50.4023 197.601 50.9265 198.14 51.1996 198.826C51.7681 200.236 51.0815 201.846 49.664 202.414C48.6821 202.806 47.6707 203.108 46.6518 203.3C41.1517 204.356 35.6884 202.614 31.8346 198.76C28.7116 195.637 26.9915 191.488 26.9915 187.073C26.9915 182.658 28.7116 178.501 31.8346 175.379C34.9575 172.256 39.1066 170.535 43.5215 170.535C47.9365 170.535 52.093 172.256 55.2159 175.379C58.3388 178.501 60.059 182.658 60.059 187.073V198.073H63.7135V198.058C66.5116 197.962 69.1251 196.833 71.1184 194.847C73.193 192.765 74.3373 190.004 74.3373 187.073V173.311C74.3373 171.783 75.5777 170.543 77.1059 170.543C78.6341 170.543 79.8744 171.783 79.8744 173.311Z" fill="#28293D"/>
<path d="M152.625 187.073C152.625 191.488 150.904 195.637 147.781 198.76C144.659 201.883 140.509 203.603 136.094 203.603H126.231C124.703 203.603 123.463 202.363 123.463 200.834C123.463 199.306 124.703 198.066 126.231 198.066H136.094C139.033 198.066 141.794 196.922 143.869 194.847C145.943 192.765 147.087 190.004 147.087 187.073C147.087 184.142 145.943 181.373 143.869 179.299C141.794 177.224 139.033 176.08 136.094 176.08H126.231C124.703 176.08 123.463 174.832 123.463 173.311C123.463 171.79 124.703 170.535 126.231 170.535H136.094C138.302 170.535 140.443 170.964 142.422 171.783C144.4 172.603 146.216 173.813 147.781 175.379C150.904 178.501 152.625 182.658 152.625 187.073Z" fill="#28293D"/>
<path d="M198.213 175.378C196.146 173.311 193.57 171.827 190.757 171.089L190.011 170.89L192.979 168.704C193.577 168.269 193.968 167.626 194.079 166.896C194.19 166.165 194.013 165.434 193.577 164.843C193.141 164.245 192.499 163.854 191.768 163.743C191.037 163.632 190.306 163.81 189.716 164.245L177.837 173.001C177.224 173.385 176.656 173.784 176.131 174.212L175.526 174.699V169.664C175.526 168.136 174.286 166.896 172.757 166.896C171.229 166.896 169.989 168.136 169.989 169.664V185.618C169.989 185.744 169.996 185.877 170.018 186.002C169.996 186.401 169.989 186.733 169.989 187.073C169.989 191.488 171.709 195.637 174.832 198.76C177.955 201.883 182.104 203.603 186.519 203.603C190.934 203.603 195.09 201.883 198.213 198.76C201.336 195.637 203.049 191.488 203.049 187.073C203.049 182.658 201.336 178.501 198.213 175.378ZM194.293 194.847C192.219 196.921 189.457 198.066 186.519 198.066C183.581 198.066 180.827 196.921 178.745 194.847C176.67 192.765 175.526 190.004 175.526 187.073C175.526 184.142 176.67 181.373 178.745 179.299C180.827 177.224 183.581 176.08 186.519 176.08C189.457 176.08 192.219 177.224 194.293 179.299C196.368 181.373 197.512 184.134 197.512 187.073C197.512 190.011 196.368 192.765 194.293 194.847Z" fill="#28293D"/>
<path d="M164.26 173.311V186.778C164.26 190.587 163.47 194.286 161.912 197.77C160.384 201.196 158.088 204.349 155.268 206.873L154.419 207.604C153.85 208.069 153.134 208.291 152.403 208.217C151.665 208.143 151.008 207.796 150.535 207.22C149.575 206.047 149.745 204.304 150.919 203.337L151.591 202.761C153.828 200.761 155.651 198.25 156.877 195.519C158.103 192.78 158.723 189.834 158.723 186.778V173.311C158.723 171.783 159.963 170.543 161.491 170.543C163.019 170.543 164.26 171.783 164.26 173.311Z" fill="#28293D"/>
<path d="M65.4854 175.873C67.2631 175.873 68.7043 174.432 68.7043 172.654C68.7043 170.876 67.2631 169.435 65.4854 169.435C63.7076 169.435 62.2665 170.876 62.2665 172.654C62.2665 174.432 63.7076 175.873 65.4854 175.873Z" fill="#28293D"/>
<path d="M138.686 240C139.469 240 140.103 239.365 140.103 238.583C140.103 237.8 139.469 237.165 138.686 237.165C137.903 237.165 137.268 237.8 137.268 238.583C137.268 239.365 137.903 240 138.686 240Z" fill="#28293D"/>
<path d="M71.9897 229.199C71.7387 228.682 71.1111 228.468 70.5943 228.719C70.0775 228.97 69.8634 229.598 70.1144 230.115C70.1735 230.24 70.2252 230.38 70.2621 230.528C70.2916 230.661 70.3064 230.809 70.3064 230.971C70.3064 231.503 70.0923 231.99 69.7379 232.337C69.4352 232.639 69.0366 232.839 68.5862 232.891H67.9734C67.7446 232.891 67.5305 232.854 67.3311 232.787C67.6043 232.241 67.7593 231.628 67.7593 230.971C67.7593 230.668 67.7224 230.366 67.656 230.063C67.5895 229.768 67.4862 229.48 67.3459 229.199C67.0949 228.682 66.4673 228.468 65.9505 228.719C65.4338 228.97 65.2196 229.598 65.4707 230.115C65.5297 230.24 65.5814 230.38 65.6183 230.528C65.6478 230.661 65.6626 230.809 65.6626 230.971C65.6626 231.503 65.4485 231.99 65.0941 232.337C64.7914 232.639 64.3928 232.839 63.9424 232.891H63.3297C62.9384 232.891 62.584 232.78 62.2813 232.58C61.9934 232.396 61.7571 232.137 61.6021 231.827C61.6611 231.547 61.6981 231.259 61.6981 230.964C61.6981 230.668 61.6611 230.358 61.5947 230.055C61.5282 229.76 61.4249 229.472 61.2846 229.192C61.0336 228.675 60.4061 228.461 59.8893 228.712C59.3725 228.963 59.1584 229.59 59.4094 230.107C59.4684 230.233 59.5201 230.373 59.557 230.521C59.5866 230.653 59.6013 230.801 59.6013 230.964C59.6013 231.495 59.3872 231.982 59.0329 232.329C58.7302 232.632 58.3315 232.831 57.8811 232.883H57.2684C57.1429 232.883 56.8919 232.898 56.5965 232.913C56.2496 232.927 55.8287 232.95 55.4227 232.957C55.0978 232.957 54.7508 232.957 54.3891 232.927C55.216 231.975 55.7623 230.617 55.7844 228.66V228.616C55.7844 228.535 55.777 228.453 55.7549 228.372C55.622 227.811 55.0609 227.464 54.4998 227.597C53.5474 227.826 52.6098 227.944 51.6944 227.951C50.801 227.951 49.9151 227.848 49.0587 227.612C48.9627 227.582 48.8667 227.567 48.756 227.567C48.1802 227.567 47.715 228.04 47.715 228.616C47.7298 230.587 48.2761 231.968 49.1104 232.92C48.911 232.935 48.7117 232.942 48.5271 232.95H47.8479C47.5157 232.942 47.1835 232.927 46.9029 232.913L46.6224 232.898C46.2754 232.809 45.9653 232.632 45.7217 232.381C45.3673 232.027 45.1532 231.517 45.1532 230.941V227.184C45.1532 226.069 44.7029 225.065 43.972 224.334C43.2411 223.603 42.237 223.153 41.1222 223.153C40.0074 223.153 39.0033 223.603 38.2724 224.334C37.5415 225.065 37.0912 226.069 37.0912 227.184C37.0912 228.298 37.5415 229.302 38.2724 230.033C39.0033 230.764 40.0074 231.215 41.1222 231.215C41.6981 231.215 42.1705 230.749 42.1705 230.166C42.1705 229.583 41.7054 229.118 41.1222 229.118C40.5906 229.118 40.1034 228.904 39.7564 228.549C39.4094 228.202 39.1879 227.715 39.1879 227.184C39.1879 226.652 39.402 226.165 39.7564 225.818C40.1034 225.471 40.5906 225.249 41.1222 225.249C41.6538 225.249 42.141 225.463 42.488 225.818C42.835 226.165 43.0565 226.652 43.0565 227.184V230.941C43.0565 232.086 43.5068 233.105 44.2304 233.843C44.6069 234.227 45.0646 234.537 45.5666 234.744C45.7438 234.891 45.9727 234.98 46.2237 234.98H46.3861C46.6076 235.017 46.8439 235.039 47.0727 235.039H48.6748C48.7412 235.039 48.8003 235.039 48.8594 235.024C49.7822 234.987 50.7863 234.869 51.746 234.566C52.9863 234.958 54.3153 235.039 55.4227 235.032C55.9395 235.032 56.3529 235.009 56.6925 234.987C56.8992 234.98 57.0764 234.965 57.2684 234.965H57.5046C57.5563 234.972 57.608 234.98 57.667 234.98C58.7745 234.98 59.7785 234.537 60.502 233.813C60.7014 234.005 60.9155 234.182 61.1443 234.33C61.7719 234.736 62.5175 234.972 63.3223 234.972H63.5585C63.6102 234.98 63.6619 234.987 63.7209 234.987C64.5035 234.987 65.2344 234.766 65.8546 234.374C66.0687 234.507 66.2975 234.618 66.5338 234.707C66.9768 234.876 67.4566 234.965 67.9587 234.965H68.1949C68.2466 234.972 68.2983 234.98 68.3573 234.98C69.4721 234.98 70.4762 234.529 71.2071 233.799C71.938 233.068 72.3883 232.064 72.3883 230.949C72.3883 230.646 72.3514 230.343 72.285 230.041C72.2185 229.745 72.1152 229.458 71.9749 229.177L71.9897 229.199ZM51.7903 232.241C50.9635 231.79 50.2916 231.067 50.0037 229.923C50.5796 230.004 51.1554 230.041 51.746 230.041C52.3588 230.041 52.9716 229.989 53.5917 229.908C53.3038 231.067 52.6246 231.79 51.7977 232.241H51.7903Z" fill="#28293D"/>
<path d="M88.8298 229.251C88.5788 228.734 87.9513 228.52 87.4345 228.771C86.9177 229.022 86.7036 229.649 86.9546 230.166C87.0137 230.292 87.0654 230.432 87.1023 230.58C87.1318 230.712 87.1466 230.86 87.1466 231.023C87.1466 231.554 86.9325 232.041 86.5781 232.388C86.2311 232.735 85.7438 232.957 85.2123 232.957H83.6102C83.0786 232.957 82.5914 232.743 82.2444 232.388C81.8974 232.041 81.6759 231.554 81.6759 231.023C81.6759 230.978 81.6759 230.934 81.6685 230.897C81.6021 229.893 81.1665 228.985 80.4947 228.32C79.7638 227.59 78.7597 227.139 77.6449 227.139C76.5301 227.139 75.526 227.59 74.7951 228.32C74.0642 229.051 73.6139 230.055 73.6139 231.17C73.6139 232.285 74.0642 233.289 74.7951 234.02C75.526 234.751 76.5301 235.201 77.6449 235.201C78.2208 235.201 78.6933 234.736 78.6933 234.153C78.6933 233.57 78.2281 233.104 77.6449 233.104C77.1133 233.104 76.6261 232.89 76.2791 232.536C75.9321 232.189 75.7106 231.702 75.7106 231.17C75.7106 230.639 75.9247 230.151 76.2791 229.804C76.6261 229.457 77.1133 229.236 77.6449 229.236C78.1765 229.236 78.6637 229.45 79.0107 229.804C79.3577 230.159 79.5792 230.639 79.5792 231.17V237.889C79.5792 238.464 80.0443 238.937 80.6276 238.937C81.2108 238.937 81.6759 238.472 81.6759 237.889V234.566C82.2518 234.884 82.9088 235.061 83.6102 235.061H85.2123C86.3271 235.061 87.3311 234.611 88.062 233.88C88.7929 233.149 89.2433 232.145 89.2433 231.03C89.2433 230.727 89.2064 230.425 89.1399 230.122C89.0735 229.827 88.9701 229.539 88.8298 229.258V229.251Z" fill="#28293D"/>
<path d="M83.2411 227.139H86.7332C87.309 227.139 87.7815 226.674 87.7815 226.091C87.7815 225.508 87.3164 225.042 86.7332 225.042H83.2411C82.6652 225.042 82.1927 225.508 82.1927 226.091C82.1927 226.674 82.6579 227.139 83.2411 227.139Z" fill="#28293D"/>
<path d="M31.7756 226.999C30.6608 226.999 29.6567 227.449 28.9258 228.18C28.1949 228.911 27.7446 229.915 27.7446 231.03C27.7446 231.251 27.7667 231.473 27.8036 231.702C27.8405 231.923 27.8996 232.145 27.9734 232.359C28.0694 232.639 28.2761 232.846 28.5198 232.964H25.9875V229.649C25.9875 229.073 25.5223 228.601 24.9391 228.601C24.3559 228.601 23.8907 229.066 23.8907 229.649V233.304C23.8907 234.108 23.7209 234.876 23.4182 235.556C23.1082 236.249 22.6652 236.862 22.1115 237.372L21.9565 237.505L21.8679 237.578C21.4249 237.948 21.3732 238.605 21.7424 239.048C22.1115 239.491 22.7686 239.542 23.2115 239.173L23.337 239.07L23.4404 238.981L23.5142 238.907C24.2747 238.206 24.8948 237.357 25.323 236.397C25.515 235.969 25.67 235.519 25.7807 235.046H31.7682C32.883 235.046 33.8871 234.596 34.618 233.865L34.677 233.798C35.371 233.075 35.7918 232.093 35.7918 231.022C35.7918 229.952 35.3415 228.904 34.6106 228.173C33.8797 227.442 32.8756 226.991 31.7608 226.991L31.7756 226.999ZM33.1857 232.344L33.1414 232.388C32.7944 232.735 32.3071 232.957 31.7756 232.957H29.3983C29.8782 232.735 30.1292 232.174 29.9446 231.665C29.9077 231.569 29.8856 231.465 29.8634 231.355C29.8487 231.259 29.8413 231.148 29.8413 231.03C29.8413 230.498 30.0554 230.011 30.4098 229.664C30.7567 229.317 31.244 229.096 31.7756 229.096C32.3071 229.096 32.7944 229.31 33.1414 229.664C33.4884 230.011 33.7099 230.498 33.7099 231.03C33.7099 231.561 33.5105 232.012 33.1931 232.351L33.1857 232.344Z" fill="#28293D"/>
<path d="M12.3293 230.033H6.98413C6.83647 230.033 6.68882 230.063 6.56331 230.122C6.1794 230.225 5.87671 230.543 5.80288 230.956C5.7069 231.525 6.09081 232.063 6.65928 232.159C7.34588 232.278 7.97342 232.462 8.4976 232.743C8.9701 233.001 9.36877 233.341 9.64932 233.806C9.88557 234.197 10.0185 234.721 10.0185 235.268C10.0185 235.666 9.94463 236.065 9.78221 236.412C9.63455 236.722 9.42045 236.988 9.12514 237.172C8.82983 237.35 8.44592 237.453 7.94389 237.453H4.03101C3.49945 237.453 3.01218 237.239 2.66519 236.884C2.3182 236.537 2.09671 236.05 2.09671 235.519V232.241C2.09671 231.665 1.6316 231.192 1.04836 231.192C0.465116 231.192 0 231.657 0 232.241V235.519C0 236.633 0.450351 237.637 1.18125 238.368C1.91214 239.099 2.91621 239.55 4.03101 239.55H7.94389C8.85198 239.55 9.60502 239.328 10.2178 238.959C10.897 238.546 11.3769 237.962 11.687 237.298C11.9823 236.663 12.1152 235.962 12.1152 235.275C12.1152 234.36 11.8715 233.444 11.436 232.728C11.3031 232.514 11.1628 232.315 11.0078 232.13H12.3367C12.9125 232.13 13.385 231.665 13.385 231.082C13.385 230.498 12.9199 230.033 12.3367 230.033H12.3293Z" fill="#28293D"/>
<path d="M179.764 227.139H183.256C183.832 227.139 184.304 226.674 184.304 226.091C184.304 225.508 183.839 225.042 183.256 225.042H179.764C179.188 225.042 178.715 225.508 178.715 226.091C178.715 226.674 179.181 227.139 179.764 227.139Z" fill="#28293D"/>
<path d="M21.6612 233.798C22.3552 233.075 22.776 232.093 22.776 231.022C22.776 229.952 22.3256 228.904 21.5947 228.173C20.8638 227.442 19.8598 226.991 18.745 226.991H16.1019C15.5261 226.991 15.0536 227.457 15.0536 228.04C15.0536 228.623 15.5187 229.088 16.1019 229.088H18.745C19.2765 229.088 19.7638 229.302 20.1108 229.657C20.4578 230.004 20.6793 230.491 20.6793 231.022C20.6793 231.554 20.4799 232.004 20.1625 232.344L20.1182 232.388C19.7712 232.735 19.2839 232.957 18.7524 232.957H14.6106C14.0348 232.957 13.5623 233.422 13.5623 234.005C13.5623 234.588 14.0274 235.053 14.6106 235.053H18.7524C19.8672 235.053 20.8712 234.603 21.6021 233.872L21.6612 233.806V233.798Z" fill="#28293D"/>
<path d="M95.5999 227.132C94.4851 227.132 93.481 227.582 92.7501 228.313C92.0192 229.044 91.5688 230.048 91.5688 231.163C91.5688 232.278 92.0192 233.282 92.7501 234.013C93.481 234.744 94.4851 235.194 95.5999 235.194C96.1757 235.194 96.6482 234.729 96.6482 234.145C96.6482 233.562 96.1831 233.097 95.5999 233.097C95.0683 233.097 94.581 232.883 94.234 232.529C93.887 232.182 93.6656 231.694 93.6656 231.163C93.6656 230.631 93.8797 230.144 94.234 229.797C94.5884 229.45 95.0683 229.229 95.5999 229.229C96.1314 229.229 96.6187 229.443 96.9657 229.797C97.3127 230.144 97.5342 230.631 97.5342 231.163V237.881C97.5342 238.457 97.9993 238.93 98.5825 238.93C99.1657 238.93 99.6309 238.464 99.6309 237.881V231.163C99.6309 230.048 99.1805 229.044 98.4496 228.313C97.7187 227.582 96.7147 227.132 95.5999 227.132Z" fill="#28293D"/>
<path d="M205.663 236.774H202.171C201.595 236.774 201.122 237.239 201.122 237.822C201.122 238.405 201.587 238.87 202.171 238.87H205.663C206.238 238.87 206.711 238.405 206.711 237.822C206.711 237.239 206.246 236.774 205.663 236.774Z" fill="#28293D"/>
<path d="M105.818 228.594C105.242 228.594 104.769 229.059 104.769 229.642V233.296C104.769 234.101 104.599 234.869 104.297 235.548C103.987 236.242 103.544 236.855 102.99 237.364L102.835 237.497L102.746 237.571C102.303 237.94 102.252 238.597 102.621 239.04C102.99 239.483 103.647 239.535 104.09 239.166L104.216 239.062L104.319 238.974L104.393 238.9C105.153 238.199 105.773 237.35 106.202 236.39C106.63 235.437 106.866 234.389 106.866 233.289V229.635C106.866 229.059 106.401 228.586 105.818 228.586V228.594Z" fill="#28293D"/>
<path d="M196.7 230.114C196.633 229.819 196.53 229.531 196.39 229.251C196.139 228.734 195.511 228.52 194.994 228.771C194.478 229.022 194.264 229.649 194.515 230.166C194.574 230.292 194.625 230.432 194.662 230.579C194.692 230.712 194.706 230.86 194.706 231.022C194.706 231.554 194.492 232.041 194.138 232.388C193.791 232.735 193.304 232.957 192.772 232.957H191.17C190.639 232.957 190.151 232.743 189.804 232.388C189.465 232.049 189.251 231.584 189.236 231.067C189.236 230.476 189.236 229.885 189.236 229.302C189.236 228.719 188.771 228.254 188.187 228.254C187.604 228.254 187.139 228.719 187.139 229.302V231.067C187.132 231.584 186.918 232.049 186.571 232.388C186.224 232.735 185.736 232.957 185.205 232.957H177.822C177.29 232.957 176.803 232.743 176.456 232.388C176.109 232.041 175.888 231.554 175.888 231.022C175.888 230.867 175.903 230.72 175.932 230.579C175.969 230.432 176.013 230.292 176.08 230.166C176.331 229.649 176.117 229.022 175.6 228.771C175.083 228.52 174.455 228.734 174.204 229.251C174.072 229.524 173.968 229.819 173.894 230.114C173.828 230.41 173.791 230.712 173.791 231.022C173.791 232.137 174.241 233.141 174.972 233.872C175.703 234.603 176.707 235.053 177.822 235.053H185.205C186.32 235.053 187.324 234.603 188.055 233.872L188.187 233.732L188.32 233.872C189.051 234.603 190.055 235.053 191.17 235.053H192.772C193.887 235.053 194.891 234.603 195.622 233.872C196.353 233.141 196.803 232.137 196.803 231.022C196.803 230.72 196.766 230.417 196.7 230.114Z" fill="#28293D"/>
<path d="M228.859 228.313C228.128 227.582 227.124 227.132 226.01 227.132C224.895 227.132 223.891 227.582 223.16 228.313C222.791 228.682 222.495 229.118 222.289 229.612C222.2 229.745 222.141 229.9 222.126 230.07V230.092C222.045 230.38 222.001 230.676 221.986 230.986C221.824 231.768 221.58 232.263 221.277 232.558L221.24 232.595C220.915 232.89 220.45 232.972 219.926 232.964C219.476 232.964 219.033 232.743 218.701 232.388C218.376 232.049 218.169 231.584 218.154 231.067V231.045C218.154 229.93 217.704 228.926 216.973 228.195C216.242 227.464 215.238 227.014 214.123 227.014H211.48C210.904 227.014 210.432 227.479 210.432 228.062C210.432 228.645 210.897 229.11 211.48 229.11H214.123C214.655 229.11 215.142 229.324 215.489 229.679C215.829 230.018 216.043 230.484 216.058 231V231.074C216.05 231.598 215.836 232.071 215.496 232.41C215.149 232.765 214.67 232.979 214.131 232.979H209.989C209.413 232.979 208.941 233.444 208.941 234.027C208.941 234.611 209.406 235.076 209.989 235.076H214.131C215.238 235.076 216.242 234.625 216.973 233.894L217.113 233.747L217.18 233.821C217.889 234.574 218.87 235.046 219.911 235.054C220.945 235.061 221.89 234.847 222.68 234.109L222.746 234.049C222.82 233.976 222.894 233.894 222.968 233.806C223.027 233.872 223.093 233.939 223.152 234.005C223.883 234.736 224.887 235.186 226.002 235.186C227.117 235.186 228.114 234.736 228.845 234.005V233.998C229.568 233.267 230.018 232.263 230.018 231.163C230.018 230.063 229.568 229.044 228.837 228.313H228.859ZM227.383 232.529C227.036 232.883 226.556 233.097 226.017 233.097C225.478 233.097 224.998 232.883 224.651 232.529C224.304 232.182 224.09 231.702 224.083 231.178C224.12 230.978 224.156 230.772 224.179 230.55C224.275 230.262 224.437 230.004 224.644 229.797C224.991 229.45 225.478 229.229 226.01 229.229C226.541 229.229 227.028 229.443 227.375 229.797C227.722 230.144 227.944 230.631 227.944 231.163C227.944 231.694 227.73 232.182 227.383 232.529Z" fill="#28293D"/>
<path d="M207.914 229.251C207.663 228.734 207.036 228.52 206.519 228.771C206.002 229.022 205.788 229.649 206.039 230.166C206.098 230.292 206.15 230.432 206.187 230.58C206.216 230.712 206.231 230.86 206.231 231.023C206.231 231.554 206.017 232.041 205.663 232.388C205.316 232.735 204.828 232.957 204.297 232.957H202.695C202.163 232.957 201.676 232.743 201.329 232.388C200.989 232.049 200.775 231.591 200.76 231.074V229.295C200.76 228.719 200.288 228.247 199.712 228.247C199.136 228.247 198.664 228.712 198.664 229.295V233.289C198.664 234.094 198.494 234.862 198.191 235.541C197.881 236.235 197.438 236.848 196.884 237.357L196.729 237.49L196.641 237.564C196.198 237.933 196.146 238.59 196.515 239.033C196.884 239.476 197.542 239.527 197.984 239.158L198.11 239.055L198.213 238.966L198.287 238.893C199.048 238.191 199.668 237.342 200.096 236.39C200.362 235.792 200.554 235.157 200.664 234.492C201.262 234.839 201.956 235.039 202.695 235.039H204.297C205.412 235.039 206.416 234.588 207.147 233.858C207.877 233.127 208.328 232.123 208.328 231.008C208.328 230.705 208.291 230.402 208.224 230.1C208.158 229.804 208.055 229.516 207.914 229.236V229.251Z" fill="#28293D"/>
<path d="M116.759 227.235L119.409 225.057C119.852 224.688 119.919 224.031 119.55 223.588C119.18 223.145 118.523 223.079 118.08 223.448L113.252 227.412C112.979 227.604 112.802 227.914 112.802 228.276C112.802 228.852 113.267 229.324 113.85 229.324H116.493C117.025 229.324 117.512 229.539 117.859 229.893C118.206 230.24 118.427 230.727 118.427 231.259C118.427 231.79 118.213 232.278 117.866 232.625C117.519 232.979 117.039 233.193 116.501 233.193H112.359C111.827 233.193 111.34 232.979 110.993 232.625C110.646 232.278 110.424 231.79 110.424 231.259V224.216C110.424 223.64 109.959 223.167 109.376 223.167C108.793 223.167 108.328 223.632 108.328 224.216V231.259C108.328 232.374 108.778 233.378 109.509 234.109C110.24 234.839 111.244 235.29 112.359 235.29H116.501C117.608 235.29 118.612 234.839 119.343 234.109H119.35C120.074 233.37 120.524 232.366 120.524 231.259C120.524 230.151 120.074 229.14 119.343 228.409C118.671 227.737 117.763 227.302 116.759 227.235Z" fill="#28293D"/>
<path d="M125.84 227.132C124.732 227.132 123.721 227.582 122.99 228.313C122.259 229.044 121.809 230.048 121.809 231.163C121.809 232.278 122.259 233.282 122.99 234.013C123.721 234.744 124.725 235.194 125.84 235.194C126.416 235.194 126.888 234.729 126.888 234.145C126.888 233.562 126.423 233.097 125.84 233.097C125.308 233.097 124.821 232.883 124.474 232.529C124.127 232.182 123.906 231.694 123.906 231.163C123.906 230.631 124.12 230.144 124.474 229.797C124.821 229.45 125.308 229.229 125.84 229.229C126.371 229.229 126.859 229.443 127.206 229.797C127.553 230.151 127.774 230.631 127.774 231.163V237.881C127.774 238.457 128.239 238.93 128.822 238.93C129.406 238.93 129.871 238.464 129.871 237.881V231.163C129.871 230.048 129.42 229.044 128.69 228.313C127.959 227.582 126.955 227.132 125.84 227.132Z" fill="#28293D"/>
<path d="M167.715 227.235L170.365 225.057C170.808 224.688 170.875 224.031 170.506 223.588C170.137 223.145 169.48 223.079 169.037 223.448L164.208 227.412C163.935 227.604 163.758 227.914 163.758 228.276C163.758 228.852 164.223 229.325 164.806 229.325H167.449C167.981 229.325 168.468 229.539 168.815 229.893C169.162 230.247 169.384 230.727 169.384 231.259C169.384 231.79 169.169 232.278 168.822 232.625C168.475 232.979 167.996 233.193 167.457 233.193H163.315C163.152 233.193 163.005 233.23 162.872 233.289C163.226 232.691 163.433 231.99 163.433 231.244C163.433 230.941 163.396 230.639 163.33 230.336C163.263 230.041 163.16 229.753 163.02 229.472C162.769 228.955 162.141 228.741 161.624 228.992C161.107 229.243 160.893 229.871 161.144 230.388C161.203 230.513 161.255 230.653 161.292 230.801C161.322 230.934 161.336 231.082 161.336 231.244C161.336 231.776 161.122 232.263 160.768 232.61C160.465 232.913 160.066 233.112 159.616 233.164H159.003C158.774 233.164 158.56 233.127 158.361 233.06C158.634 232.514 158.789 231.901 158.789 231.244C158.789 230.941 158.752 230.639 158.686 230.336C158.619 230.041 158.516 229.753 158.376 229.472C158.125 228.955 157.497 228.741 156.98 228.992C156.464 229.243 156.25 229.871 156.501 230.388C156.56 230.513 156.611 230.653 156.648 230.801C156.678 230.934 156.693 231.082 156.693 231.244C156.693 231.776 156.478 232.263 156.124 232.61C155.821 232.913 155.423 233.112 154.972 233.164H154.36C153.968 233.164 153.614 233.053 153.311 232.853C153.023 232.669 152.787 232.411 152.632 232.1C152.691 231.82 152.728 231.532 152.728 231.237C152.728 230.941 152.691 230.631 152.625 230.329C152.558 230.033 152.455 229.745 152.315 229.465C152.064 228.948 151.436 228.734 150.919 228.985C150.402 229.236 150.188 229.863 150.439 230.38C150.498 230.506 150.55 230.646 150.587 230.794C150.616 230.927 150.631 231.074 150.631 231.237C150.631 231.768 150.417 232.255 150.063 232.602C149.76 232.905 149.361 233.105 148.911 233.156H148.298C147.767 233.156 147.279 232.942 146.932 232.588C146.585 232.241 146.364 231.753 146.364 231.222V231.023C146.364 230.72 146.327 230.417 146.261 230.114C146.194 229.819 146.091 229.531 145.951 229.251C145.7 228.734 145.072 228.52 144.555 228.771C144.038 229.022 143.824 229.649 144.075 230.166C144.134 230.292 144.186 230.432 144.223 230.58C144.253 230.712 144.267 230.86 144.267 231.023C144.267 231.554 144.053 232.041 143.699 232.388C143.352 232.735 142.865 232.957 142.333 232.957H134.95C134.419 232.957 133.931 232.743 133.584 232.388C133.237 232.041 133.016 231.554 133.016 231.023C133.016 230.868 133.031 230.72 133.06 230.58C133.097 230.432 133.141 230.292 133.208 230.166C133.459 229.649 133.245 229.022 132.728 228.771C132.211 228.52 131.584 228.734 131.333 229.251C131.2 229.524 131.096 229.819 131.023 230.114C130.956 230.41 130.919 230.712 130.919 231.023C130.919 232.137 131.37 233.141 132.1 233.872C132.831 234.603 133.835 235.054 134.95 235.054H142.333C143.448 235.054 144.452 234.603 145.183 233.872L145.227 233.828C145.301 233.909 145.375 233.99 145.449 234.072C146.179 234.803 147.183 235.253 148.298 235.253H148.535C148.586 235.26 148.638 235.268 148.697 235.268C149.804 235.268 150.808 234.825 151.532 234.101C151.731 234.293 151.945 234.47 152.174 234.618C152.802 235.024 153.547 235.26 154.352 235.26H154.588C154.64 235.268 154.692 235.275 154.751 235.275C155.533 235.275 156.264 235.054 156.884 234.662C157.099 234.795 157.327 234.906 157.564 234.995C158.007 235.164 158.487 235.253 158.989 235.253H159.225C159.277 235.26 159.328 235.268 159.387 235.268C160.502 235.268 161.506 234.817 162.237 234.086L162.274 234.05C162.267 234.109 162.259 234.168 162.259 234.234C162.259 234.81 162.724 235.282 163.308 235.282H167.449C168.557 235.282 169.561 234.832 170.292 234.101H170.299C171.023 233.363 171.473 232.359 171.473 231.251C171.473 230.144 171.023 229.133 170.292 228.402C169.62 227.73 168.712 227.294 167.708 227.228L167.715 227.235Z" fill="#28293D"/>
<path d="M194.138 236.774H190.646C190.07 236.774 189.598 237.239 189.598 237.822C189.598 238.405 190.063 238.87 190.646 238.87H194.138C194.714 238.87 195.186 238.405 195.186 237.822C195.186 237.239 194.721 236.774 194.138 236.774Z" fill="#28293D"/>
<path d="M31.4655 224.585C32.248 224.585 32.883 223.95 32.883 223.167C32.883 222.385 32.248 221.75 31.4655 221.75C30.6829 221.75 30.048 222.385 30.048 223.167C30.048 223.95 30.6829 224.585 31.4655 224.585Z" fill="#28293D"/>
<path fill-rule="evenodd" clip-rule="evenodd" d="M74.8838 116.117C74.8838 114.382 76.2865 112.979 78.0215 112.979C79.7564 112.979 81.1592 114.382 81.1592 116.117V138.538C81.1592 140.273 79.7564 141.676 78.0215 141.676H77.9772H71.5615C67.7225 141.676 64.2378 140.111 61.7129 137.586C59.188 135.061 57.6228 131.576 57.6228 127.737V73.1563C57.6228 69.3172 59.188 65.8325 61.7129 63.3076C64.2378 60.7827 67.7225 59.2175 71.5615 59.2175H158.487C162.326 59.2175 165.81 60.7827 168.335 63.3076C170.86 65.8325 172.425 69.3172 172.425 73.1563V127.737C172.425 131.576 170.86 135.061 168.335 137.586C165.81 140.111 162.326 141.676 158.487 141.676H152.108H152.027C150.292 141.676 148.889 140.273 148.889 138.538V116.117C148.889 114.382 150.292 112.979 152.027 112.979C153.762 112.979 155.164 114.382 155.164 116.117V135.401H158.487C160.591 135.401 162.503 134.537 163.898 133.149C165.294 131.761 166.15 129.841 166.15 127.737V73.1563C166.15 71.0522 165.286 69.14 163.898 67.7447C162.51 66.3493 160.591 65.4929 158.487 65.4929H71.5615C69.4574 65.4929 67.5453 66.3567 66.1499 67.7447C64.7546 69.1326 63.8982 71.0522 63.8982 73.1563V127.737C63.8982 129.841 64.762 131.754 66.1499 133.149C67.5379 134.544 69.4574 135.401 71.5615 135.401H74.8838V116.117Z" fill="#28293D"/>
<path fill-rule="evenodd" clip-rule="evenodd" d="M93.075 3.1377C75.814 3.1377 63.5733 10.9413 60.635 25.4042L55.4301 50.9782C52.5656 65.0425 59.0625 76.0059 74.6106 76.0059C85.7513 76.0059 94.7804 66.9767 94.8026 55.8361C94.8247 66.9767 103.854 76.0059 115.017 76.0059C126.179 76.0059 135.209 66.9767 135.231 55.8361C135.253 66.9767 144.282 76.0059 155.423 76.0059C170.971 76.0059 177.468 65.0425 174.603 50.9782L169.398 25.4042C166.453 10.9413 154.219 3.1377 136.958 3.1377H93.0676H93.075Z" fill="#FC7753"/>
<path fill-rule="evenodd" clip-rule="evenodd" d="M135.386 58.2872C136.611 68.2687 145.116 76.0059 155.423 76.0059C170.971 76.0059 177.468 65.0425 174.603 50.9782L169.398 25.4042C166.453 10.9413 154.219 3.1377 136.958 3.1377H135.142L135.378 58.2872H135.386Z" fill="#00A693"/>
<path fill-rule="evenodd" clip-rule="evenodd" d="M94.6475 58.2872C93.422 68.2687 84.917 76.0059 74.6106 76.0059C59.0625 76.0059 52.5656 65.0425 55.4301 50.9782L60.635 25.4042C63.5807 10.9413 75.814 3.1377 93.075 3.1377H94.8912L94.6549 58.2872H94.6475Z" fill="#00A693"/>
<path fill-rule="evenodd" clip-rule="evenodd" d="M91.7534 6.29753C84.223 6.4821 77.8443 8.2835 73.0454 11.5762C68.2466 14.869 64.9834 19.7268 63.6988 26.0317L58.4939 51.6058C58.1027 53.5179 57.9107 55.3931 57.9107 57.2019C57.9107 61.1665 58.9 64.6069 60.8638 67.213C62.7981 69.7822 65.7438 71.6131 69.6936 72.4179C71.1554 72.7132 72.7944 72.8682 74.618 72.8682C79.3282 72.8682 83.5881 70.9635 86.6741 67.8848C89.7601 64.7988 91.6722 60.5389 91.687 55.8361H91.7608V6.29753H91.7534ZM98.0214 57.5932C98.4349 61.5947 100.244 65.1901 102.946 67.8922C106.032 70.9708 110.299 72.8756 115.017 72.8756C119.734 72.8756 124.002 70.9708 127.088 67.8922C129.79 65.1975 131.591 61.6021 132.012 57.5932C132.012 57.5194 132.004 57.4455 132.004 57.3643V6.27538H98.0288V57.357C98.0288 57.4308 98.0288 57.512 98.0214 57.5858V57.5932ZM138.28 55.8435H138.354C138.361 60.5463 140.273 64.8062 143.367 67.8922C146.453 70.9708 150.712 72.8756 155.423 72.8756C157.246 72.8756 158.885 72.7206 160.347 72.4252C164.297 71.6205 167.243 69.7896 169.177 67.2204C171.141 64.6143 172.13 61.1739 172.13 57.2093C172.13 55.4005 171.938 53.5253 171.547 51.6131L166.342 26.0391C165.057 19.7342 161.794 14.8763 156.995 11.5836C152.196 8.29088 145.818 6.48948 138.287 6.30491V55.8509L138.28 55.8435ZM69.5091 6.40089C75.6516 2.18531 83.6988 0 93.075 0H136.966C146.334 0 154.389 2.18531 160.524 6.40089C166.674 10.6238 170.845 16.8032 172.47 24.7841L177.674 50.3581C178.162 52.7575 178.405 55.0461 178.405 57.2019C178.405 62.5249 176.988 67.2573 174.182 70.9856C171.347 74.7508 167.139 77.416 161.602 78.5456C159.668 78.9369 157.608 79.1436 155.43 79.1436C149.007 79.1436 143.182 76.5375 138.959 72.3219C137.519 70.8822 136.264 69.2506 135.238 67.4788C134.212 69.258 132.957 70.8822 131.51 72.3219C127.287 76.5375 121.462 79.1436 115.024 79.1436C108.586 79.1436 102.761 76.5375 98.5382 72.3219C97.0912 70.8822 95.8361 69.2506 94.8099 67.4788C93.7837 69.258 92.5286 70.8822 91.089 72.3219C86.866 76.5375 81.0484 79.1436 74.618 79.1436C72.44 79.1436 70.3802 78.9369 68.4459 78.5456C62.9015 77.416 58.7007 74.7508 55.8657 70.9856C53.0528 67.2573 51.6427 62.5175 51.6427 57.2019C51.6427 55.0461 51.8863 52.7501 52.3736 50.3581L57.5785 24.7841C59.2027 16.8032 63.374 10.6238 69.5238 6.40089H69.5091Z" fill="#28293D"/>
<path d="M112.798 108.977L108.549 113.226C107.324 114.451 107.324 116.438 108.549 117.664L112.798 121.913C114.024 123.138 116.01 123.138 117.236 121.913L121.485 117.664C122.71 116.438 122.71 114.451 121.485 113.226L117.236 108.977C116.01 107.751 114.024 107.751 112.798 108.977Z" fill="#28293D"/>
<path fill-rule="evenodd" clip-rule="evenodd" d="M118.154 115.445C118.154 117.18 116.752 118.583 115.017 118.583C113.282 118.583 111.879 117.18 111.879 115.445V86.9399C111.879 85.205 113.282 83.8022 115.017 83.8022C116.752 83.8022 118.154 85.205 118.154 86.9399V115.445Z" fill="#28293D"/>
<path d="M112.797 75.9192L105.212 83.5045C103.987 84.7298 103.987 86.7165 105.212 87.9418L112.797 95.5271C114.023 96.7524 116.01 96.7524 117.235 95.5271L124.82 87.9418C126.045 86.7165 126.045 84.7298 124.82 83.5045L117.235 75.9192C116.01 74.6938 114.023 74.6938 112.797 75.9192Z" fill="#28293D"/>
<path d="M134.944 97.3517L130.695 101.601C129.469 102.826 129.469 104.813 130.695 106.039L134.944 110.288C136.169 111.513 138.156 111.513 139.381 110.288L143.631 106.039C144.856 104.813 144.856 102.826 143.631 101.601L139.381 97.3517C138.156 96.1264 136.169 96.1264 134.944 97.3517Z" fill="#28293D"/>
<path d="M90.6655 97.3556L86.4161 101.605C85.1907 102.83 85.1907 104.817 86.4161 106.042L90.6655 110.292C91.8908 111.517 93.8775 111.517 95.1029 110.292L99.3523 106.042C100.578 104.817 100.578 102.83 99.3523 101.605L95.1029 97.3556C93.8775 96.1303 91.8908 96.1303 90.6655 97.3556Z" fill="#28293D"/>
<path d="M149.8 112.117L147.07 114.847C145.844 116.072 145.844 118.059 147.07 119.284L149.8 122.015C151.025 123.24 153.012 123.24 154.237 122.015L156.968 119.284C158.193 118.059 158.193 116.072 156.968 114.847L154.237 112.117C153.012 110.891 151.025 110.891 149.8 112.117Z" fill="#28293D"/>
<path d="M75.7997 112.119L73.0694 114.849C71.844 116.075 71.844 118.061 73.0694 119.287L75.7997 122.017C77.025 123.242 79.0117 123.242 80.237 122.017L82.9673 119.287C84.1927 118.061 84.1927 116.075 82.9673 114.849L80.237 112.119C79.0117 110.894 77.025 110.894 75.7997 112.119Z" fill="#28293D"/>
<path fill-rule="evenodd" clip-rule="evenodd" d="M100.325 132.58C100.162 132.447 100.015 132.292 99.8819 132.137C99.2249 132.049 98.59 131.753 98.0805 131.244L97.1725 130.336C95.9469 129.11 95.9469 127.124 97.1725 125.899L98.0805 124.991C99.3061 123.765 101.292 123.765 102.518 124.991L103.426 125.899C103.95 126.423 104.253 127.095 104.326 127.781L111.355 133.562C113.37 135.223 114.315 136.006 117.446 133.171L133.252 118.878C133.356 118.25 133.643 117.645 134.131 117.158L135.039 116.249C136.264 115.024 138.25 115.024 139.476 116.249L140.384 117.158C141.61 118.383 141.61 120.369 140.384 121.595L139.476 122.503C138.937 123.042 138.258 123.344 137.556 123.411L121.639 137.807C114.5 144.26 112.226 142.385 107.383 138.39L100.318 132.58H100.325Z" fill="#FC7753"/>
</g>
<defs>
<clipPath id="clip0_502_336">
<rect width="230.033" height="240" fill="white"/>
</clipPath>
</defs>
</svg>
