<svg width="163" height="236" viewBox="0 0 163 236" fill="none" xmlns="http://www.w3.org/2000/svg">
<g clip-path="url(#clip0_562_476)">
<path d="M162.305 28.7099L77.2003 113.815L29.9192 68.5625L50.8573 47.6244L72.8098 69.5769L125.111 17.2759C112.095 6.49211 95.3969 0 77.1743 0C35.657 0 2 33.657 2 75.1743C2 95.2644 9.88105 113.518 22.7248 127.002L80.0458 180V150.291C120.231 148.783 152.354 115.734 152.354 75.1743C152.354 67.1788 151.1 59.4746 148.785 52.2438L162.305 28.7099Z" fill="url(#paint0_linear_562_476)"/>
</g>
<path d="M145.45 202.248C148.731 202.248 151.69 202.969 154.328 204.41C156.996 205.851 159.081 207.829 160.584 210.344C162.117 212.859 162.884 215.68 162.884 218.808C162.884 221.967 162.117 224.819 160.584 227.364C159.081 229.909 156.996 231.918 154.328 233.39C151.69 234.862 148.731 235.598 145.45 235.598C142.168 235.598 139.194 234.877 136.526 233.436C133.888 231.964 131.803 229.955 130.27 227.41C128.767 224.834 128.016 221.967 128.016 218.808C128.016 215.68 128.767 212.859 130.27 210.344C131.803 207.829 133.888 205.851 136.526 204.41C139.194 202.969 142.168 202.248 145.45 202.248ZM145.542 209.378C143.947 209.378 142.46 209.792 141.08 210.62C139.73 211.448 138.657 212.598 137.86 214.07C137.062 215.511 136.664 217.106 136.664 218.854C136.664 220.633 137.062 222.258 137.86 223.73C138.688 225.171 139.776 226.321 141.126 227.18C142.475 228.008 143.947 228.422 145.542 228.422C147.136 228.422 148.593 228.008 149.912 227.18C151.261 226.321 152.319 225.171 153.086 223.73C153.852 222.258 154.236 220.633 154.236 218.854C154.236 217.106 153.852 215.511 153.086 214.07C152.319 212.598 151.261 211.448 149.912 210.62C148.593 209.792 147.136 209.378 145.542 209.378Z" fill="#00A693"/>
<path d="M104.698 202.754C108.071 202.754 111.046 203.429 113.622 204.778C116.229 206.127 118.253 208.029 119.694 210.482C121.135 212.905 121.856 215.695 121.856 218.854C121.856 222.013 121.12 224.819 119.648 227.272C118.207 229.725 116.152 231.627 113.484 232.976C110.847 234.325 107.811 235 104.376 235H90.8061V202.754H104.698ZM104.928 228.192C106.553 228.192 107.995 227.809 109.252 227.042C110.509 226.275 111.491 225.187 112.196 223.776C112.901 222.365 113.254 220.755 113.254 218.946C113.254 217.106 112.871 215.481 112.104 214.07C111.368 212.659 110.341 211.571 109.022 210.804C107.703 210.007 106.201 209.608 104.514 209.608H99.2241V228.192H104.928Z" fill="#00A693"/>
<path d="M49.8022 202.248C53.0835 202.248 56.0428 202.969 58.6802 204.41C61.3482 205.851 63.4335 207.829 64.9362 210.344C66.4695 212.859 67.2362 215.68 67.2362 218.808C67.2362 221.967 66.4695 224.819 64.9362 227.364C63.4335 229.909 61.3482 231.918 58.6802 233.39C56.0428 234.862 53.0835 235.598 49.8022 235.598C46.5208 235.598 43.5462 234.877 40.8782 233.436C38.2408 231.964 36.1555 229.955 34.6222 227.41C33.1195 224.834 32.3682 221.967 32.3682 218.808C32.3682 215.68 33.1195 212.859 34.6222 210.344C36.1555 207.829 38.2408 205.851 40.8782 204.41C43.5462 202.969 46.5208 202.248 49.8022 202.248ZM49.8942 209.378C48.2995 209.378 46.8122 209.792 45.4322 210.62C44.0828 211.448 43.0095 212.598 42.2122 214.07C41.4148 215.511 41.0162 217.106 41.0162 218.854C41.0162 220.633 41.4148 222.258 42.2122 223.73C43.0402 225.171 44.1288 226.321 45.4782 227.18C46.8275 228.008 48.2995 228.422 49.8942 228.422C51.4888 228.422 52.9455 228.008 54.2642 227.18C55.6135 226.321 56.6715 225.171 57.4382 223.73C58.2048 222.258 58.5882 220.633 58.5882 218.854C58.5882 217.106 58.2048 215.511 57.4382 214.07C56.6715 212.598 55.6135 211.448 54.2642 210.62C52.9455 209.792 51.4888 209.378 49.8942 209.378Z" fill="#00A693"/>
<path d="M0.393433 202.754H28.0394V209.7H18.3794V235H9.96143V209.7H0.393433V202.754Z" fill="#00A693"/>
<defs>
<linearGradient id="paint0_linear_562_476" x1="34.5126" y1="13.7853" x2="125.808" y2="134.472" gradientUnits="userSpaceOnUse">
<stop stop-color="#00A693"/>
<stop offset="1" stop-color="#FC7753"/>
</linearGradient>
<clipPath id="clip0_562_476">
<rect width="160.305" height="180" fill="white" transform="translate(2)"/>
</clipPath>
</defs>
</svg>
